<?xml version="1.0" encoding="utf-8" standalone="no"?>
<!DOCTYPE svg PUBLIC "-//W3C//DTD SVG 1.1//EN"
  "http://www.w3.org/Graphics/SVG/1.1/DTD/svg11.dtd">
<svg xmlns:xlink="http://www.w3.org/1999/xlink" width="864pt" height="288pt" viewBox="0 0 864 288" xmlns="http://www.w3.org/2000/svg" version="1.1">
 <metadata>
  <rdf:RDF xmlns:dc="http://purl.org/dc/elements/1.1/" xmlns:cc="http://creativecommons.org/ns#" xmlns:rdf="http://www.w3.org/1999/02/22-rdf-syntax-ns#">
   <cc:Work>
    <dc:type rdf:resource="http://purl.org/dc/dcmitype/StillImage"/>
    <dc:date>2024-07-17T20:24:19.631770</dc:date>
    <dc:format>image/svg+xml</dc:format>
    <dc:creator>
     <cc:Agent>
      <dc:title>Matplotlib v3.8.4, https://matplotlib.org/</dc:title>
     </cc:Agent>
    </dc:creator>
   </cc:Work>
  </rdf:RDF>
 </metadata>
 <defs>
  <style type="text/css">*{stroke-linejoin: round; stroke-linecap: butt}</style>
 </defs>
 <g id="figure_1">
  <g id="patch_1">
   <path d="M 0 288 
L 864 288 
L 864 0 
L 0 0 
z
" style="fill: #ffffff"/>
  </g>
  <g id="axes_1">
   <g id="patch_2">
    <path d="M 42.796253 222.58 
L 300.573955 222.58 
L 300.573955 30.96 
L 42.796253 30.96 
z
" style="fill: #ffffff"/>
   </g>
   <g id="matplotlib.axis_1">
    <g id="xtick_1">
     <g id="text_1">
      <!-- 0.0 -->
      <g style="fill: #262626" transform="translate(46.868422 239.953594) scale(0.11 -0.11)">
       <defs>
        <path id="ArialMT-30" d="M 266 2259 
Q 266 3072 433 3567 
Q 600 4063 929 4331 
Q 1259 4600 1759 4600 
Q 2128 4600 2406 4451 
Q 2684 4303 2865 4023 
Q 3047 3744 3150 3342 
Q 3253 2941 3253 2259 
Q 3253 1453 3087 958 
Q 2922 463 2592 192 
Q 2263 -78 1759 -78 
Q 1097 -78 719 397 
Q 266 969 266 2259 
z
M 844 2259 
Q 844 1131 1108 757 
Q 1372 384 1759 384 
Q 2147 384 2411 759 
Q 2675 1134 2675 2259 
Q 2675 3391 2411 3762 
Q 2147 4134 1753 4134 
Q 1366 4134 1134 3806 
Q 844 3388 844 2259 
z
" transform="scale(0.015625)"/>
        <path id="ArialMT-2e" d="M 581 0 
L 581 641 
L 1222 641 
L 1222 0 
L 581 0 
z
" transform="scale(0.015625)"/>
       </defs>
       <use xlink:href="#ArialMT-30"/>
       <use xlink:href="#ArialMT-2e" x="55.615234"/>
       <use xlink:href="#ArialMT-30" x="83.398438"/>
      </g>
     </g>
    </g>
    <g id="xtick_2">
     <g id="text_2">
      <!-- 0.2 -->
      <g style="fill: #262626" transform="translate(93.737095 239.953594) scale(0.11 -0.11)">
       <defs>
        <path id="ArialMT-32" d="M 3222 541 
L 3222 0 
L 194 0 
Q 188 203 259 391 
Q 375 700 629 1000 
Q 884 1300 1366 1694 
Q 2113 2306 2375 2664 
Q 2638 3022 2638 3341 
Q 2638 3675 2398 3904 
Q 2159 4134 1775 4134 
Q 1369 4134 1125 3890 
Q 881 3647 878 3216 
L 300 3275 
Q 359 3922 746 4261 
Q 1134 4600 1788 4600 
Q 2447 4600 2831 4234 
Q 3216 3869 3216 3328 
Q 3216 3053 3103 2787 
Q 2991 2522 2730 2228 
Q 2469 1934 1863 1422 
Q 1356 997 1212 845 
Q 1069 694 975 541 
L 3222 541 
z
" transform="scale(0.015625)"/>
       </defs>
       <use xlink:href="#ArialMT-30"/>
       <use xlink:href="#ArialMT-2e" x="55.615234"/>
       <use xlink:href="#ArialMT-32" x="83.398438"/>
      </g>
     </g>
    </g>
    <g id="xtick_3">
     <g id="text_3">
      <!-- 0.4 -->
      <g style="fill: #262626" transform="translate(140.605768 239.953594) scale(0.11 -0.11)">
       <defs>
        <path id="ArialMT-34" d="M 2069 0 
L 2069 1097 
L 81 1097 
L 81 1613 
L 2172 4581 
L 2631 4581 
L 2631 1613 
L 3250 1613 
L 3250 1097 
L 2631 1097 
L 2631 0 
L 2069 0 
z
M 2069 1613 
L 2069 3678 
L 634 1613 
L 2069 1613 
z
" transform="scale(0.015625)"/>
       </defs>
       <use xlink:href="#ArialMT-30"/>
       <use xlink:href="#ArialMT-2e" x="55.615234"/>
       <use xlink:href="#ArialMT-34" x="83.398438"/>
      </g>
     </g>
    </g>
    <g id="xtick_4">
     <g id="text_4">
      <!-- 0.6 -->
      <g style="fill: #262626" transform="translate(187.474441 239.953594) scale(0.11 -0.11)">
       <defs>
        <path id="ArialMT-36" d="M 3184 3459 
L 2625 3416 
Q 2550 3747 2413 3897 
Q 2184 4138 1850 4138 
Q 1581 4138 1378 3988 
Q 1113 3794 959 3422 
Q 806 3050 800 2363 
Q 1003 2672 1297 2822 
Q 1591 2972 1913 2972 
Q 2475 2972 2870 2558 
Q 3266 2144 3266 1488 
Q 3266 1056 3080 686 
Q 2894 316 2569 119 
Q 2244 -78 1831 -78 
Q 1128 -78 684 439 
Q 241 956 241 2144 
Q 241 3472 731 4075 
Q 1159 4600 1884 4600 
Q 2425 4600 2770 4297 
Q 3116 3994 3184 3459 
z
M 888 1484 
Q 888 1194 1011 928 
Q 1134 663 1356 523 
Q 1578 384 1822 384 
Q 2178 384 2434 671 
Q 2691 959 2691 1453 
Q 2691 1928 2437 2201 
Q 2184 2475 1800 2475 
Q 1419 2475 1153 2201 
Q 888 1928 888 1484 
z
" transform="scale(0.015625)"/>
       </defs>
       <use xlink:href="#ArialMT-30"/>
       <use xlink:href="#ArialMT-2e" x="55.615234"/>
       <use xlink:href="#ArialMT-36" x="83.398438"/>
      </g>
     </g>
    </g>
    <g id="xtick_5">
     <g id="text_5">
      <!-- 0.8 -->
      <g style="fill: #262626" transform="translate(234.343114 239.953594) scale(0.11 -0.11)">
       <defs>
        <path id="ArialMT-38" d="M 1131 2484 
Q 781 2613 612 2850 
Q 444 3088 444 3419 
Q 444 3919 803 4259 
Q 1163 4600 1759 4600 
Q 2359 4600 2725 4251 
Q 3091 3903 3091 3403 
Q 3091 3084 2923 2848 
Q 2756 2613 2416 2484 
Q 2838 2347 3058 2040 
Q 3278 1734 3278 1309 
Q 3278 722 2862 322 
Q 2447 -78 1769 -78 
Q 1091 -78 675 323 
Q 259 725 259 1325 
Q 259 1772 486 2073 
Q 713 2375 1131 2484 
z
M 1019 3438 
Q 1019 3113 1228 2906 
Q 1438 2700 1772 2700 
Q 2097 2700 2305 2904 
Q 2513 3109 2513 3406 
Q 2513 3716 2298 3927 
Q 2084 4138 1766 4138 
Q 1444 4138 1231 3931 
Q 1019 3725 1019 3438 
z
M 838 1322 
Q 838 1081 952 856 
Q 1066 631 1291 507 
Q 1516 384 1775 384 
Q 2178 384 2440 643 
Q 2703 903 2703 1303 
Q 2703 1709 2433 1975 
Q 2163 2241 1756 2241 
Q 1359 2241 1098 1978 
Q 838 1716 838 1322 
z
" transform="scale(0.015625)"/>
       </defs>
       <use xlink:href="#ArialMT-30"/>
       <use xlink:href="#ArialMT-2e" x="55.615234"/>
       <use xlink:href="#ArialMT-38" x="83.398438"/>
      </g>
     </g>
    </g>
    <g id="xtick_6">
     <g id="text_6">
      <!-- 1.0 -->
      <g style="fill: #262626" transform="translate(281.211787 239.953594) scale(0.11 -0.11)">
       <defs>
        <path id="ArialMT-31" d="M 2384 0 
L 1822 0 
L 1822 3584 
Q 1619 3391 1289 3197 
Q 959 3003 697 2906 
L 697 3450 
Q 1169 3672 1522 3987 
Q 1875 4303 2022 4600 
L 2384 4600 
L 2384 0 
z
" transform="scale(0.015625)"/>
       </defs>
       <use xlink:href="#ArialMT-31"/>
       <use xlink:href="#ArialMT-2e" x="55.615234"/>
       <use xlink:href="#ArialMT-30" x="83.398438"/>
      </g>
     </g>
    </g>
   </g>
   <g id="matplotlib.axis_2">
    <g id="ytick_1"/>
    <g id="ytick_2"/>
    <g id="ytick_3"/>
    <g id="ytick_4"/>
    <g id="ytick_5"/>
   </g>
   <g id="PolyCollection_1">
    <defs>
     <path id="mdf4a86aa96" d="M 253.904673 -74.13 
L 253.904673 -130.367009 
L 254.139251 -130.831775 
L 254.373829 -131.299829 
L 254.608407 -131.771192 
L 254.842985 -132.245881 
L 255.077563 -132.723918 
L 255.312141 -133.20532 
L 255.546719 -133.690109 
L 255.781297 -134.178304 
L 256.015875 -134.669925 
L 256.250453 -135.164992 
L 256.485031 -135.663525 
L 256.719609 -136.165544 
L 256.954186 -136.671069 
L 257.188764 -137.180122 
L 257.423342 -137.692722 
L 257.65792 -138.20889 
L 257.892498 -138.728646 
L 258.127076 -139.252012 
L 258.361654 -139.779008 
L 258.596232 -140.309655 
L 258.83081 -140.843975 
L 259.065388 -141.381988 
L 259.299966 -141.923716 
L 259.534544 -142.46918 
L 259.769122 -143.018401 
L 260.0037 -143.571401 
L 260.238278 -144.128202 
L 260.472856 -144.688826 
L 260.707434 -145.253293 
L 260.942012 -145.821627 
L 261.176589 -146.393849 
L 261.411167 -146.969982 
L 261.645745 -147.550047 
L 261.880323 -148.134067 
L 262.114901 -148.722065 
L 262.349479 -149.314062 
L 262.584057 -149.910082 
L 262.818635 -150.510148 
L 263.053213 -151.114281 
L 263.287791 -151.722506 
L 263.522369 -152.334845 
L 263.756947 -152.951322 
L 263.991525 -153.571959 
L 264.226103 -154.19678 
L 264.460681 -154.825809 
L 264.695259 -155.459069 
L 264.929837 -156.096584 
L 265.164414 -156.738377 
L 265.398992 -157.384473 
L 265.63357 -158.034895 
L 265.868148 -158.689668 
L 266.102726 -159.348816 
L 266.337304 -160.012363 
L 266.571882 -160.680334 
L 266.80646 -161.352752 
L 267.041038 -162.029644 
L 267.275616 -162.711033 
L 267.510194 -163.396945 
L 267.744772 -164.087404 
L 267.97935 -164.782436 
L 268.213928 -165.482066 
L 268.448506 -166.186318 
L 268.683084 -166.895219 
L 268.917662 -167.608795 
L 269.15224 -168.327069 
L 269.386817 -169.05007 
L 269.621395 -169.777821 
L 269.855973 -170.510351 
L 270.090551 -171.247683 
L 270.325129 -171.989845 
L 270.559707 -172.736863 
L 270.794285 -173.488764 
L 271.028863 -174.245574 
L 271.263441 -175.007319 
L 271.498019 -175.774027 
L 271.732597 -176.545724 
L 271.967175 -177.322438 
L 272.201753 -178.104195 
L 272.436331 -178.891023 
L 272.670909 -179.682949 
L 272.905487 -180.480001 
L 273.140065 -181.282207 
L 273.374642 -182.089593 
L 273.60922 -182.902189 
L 273.843798 -183.720021 
L 274.078376 -184.543118 
L 274.312954 -185.371508 
L 274.547532 -186.20522 
L 274.78211 -187.044282 
L 275.016688 -187.888723 
L 275.251266 -188.738571 
L 275.485844 -189.593855 
L 275.720422 -190.454604 
L 275.955 -191.320847 
L 276.189578 -192.192613 
L 276.424156 -193.069933 
L 276.658734 -193.952834 
L 276.893312 -194.841347 
L 277.12789 -195.735501 
L 277.12789 -74.13 
L 277.12789 -74.13 
L 276.893312 -74.13 
L 276.658734 -74.13 
L 276.424156 -74.13 
L 276.189578 -74.13 
L 275.955 -74.13 
L 275.720422 -74.13 
L 275.485844 -74.13 
L 275.251266 -74.13 
L 275.016688 -74.13 
L 274.78211 -74.13 
L 274.547532 -74.13 
L 274.312954 -74.13 
L 274.078376 -74.13 
L 273.843798 -74.13 
L 273.60922 -74.13 
L 273.374642 -74.13 
L 273.140065 -74.13 
L 272.905487 -74.13 
L 272.670909 -74.13 
L 272.436331 -74.13 
L 272.201753 -74.13 
L 271.967175 -74.13 
L 271.732597 -74.13 
L 271.498019 -74.13 
L 271.263441 -74.13 
L 271.028863 -74.13 
L 270.794285 -74.13 
L 270.559707 -74.13 
L 270.325129 -74.13 
L 270.090551 -74.13 
L 269.855973 -74.13 
L 269.621395 -74.13 
L 269.386817 -74.13 
L 269.15224 -74.13 
L 268.917662 -74.13 
L 268.683084 -74.13 
L 268.448506 -74.13 
L 268.213928 -74.13 
L 267.97935 -74.13 
L 267.744772 -74.13 
L 267.510194 -74.13 
L 267.275616 -74.13 
L 267.041038 -74.13 
L 266.80646 -74.13 
L 266.571882 -74.13 
L 266.337304 -74.13 
L 266.102726 -74.13 
L 265.868148 -74.13 
L 265.63357 -74.13 
L 265.398992 -74.13 
L 265.164414 -74.13 
L 264.929837 -74.13 
L 264.695259 -74.13 
L 264.460681 -74.13 
L 264.226103 -74.13 
L 263.991525 -74.13 
L 263.756947 -74.13 
L 263.522369 -74.13 
L 263.287791 -74.13 
L 263.053213 -74.13 
L 262.818635 -74.13 
L 262.584057 -74.13 
L 262.349479 -74.13 
L 262.114901 -74.13 
L 261.880323 -74.13 
L 261.645745 -74.13 
L 261.411167 -74.13 
L 261.176589 -74.13 
L 260.942012 -74.13 
L 260.707434 -74.13 
L 260.472856 -74.13 
L 260.238278 -74.13 
L 260.0037 -74.13 
L 259.769122 -74.13 
L 259.534544 -74.13 
L 259.299966 -74.13 
L 259.065388 -74.13 
L 258.83081 -74.13 
L 258.596232 -74.13 
L 258.361654 -74.13 
L 258.127076 -74.13 
L 257.892498 -74.13 
L 257.65792 -74.13 
L 257.423342 -74.13 
L 257.188764 -74.13 
L 256.954186 -74.13 
L 256.719609 -74.13 
L 256.485031 -74.13 
L 256.250453 -74.13 
L 256.015875 -74.13 
L 255.781297 -74.13 
L 255.546719 -74.13 
L 255.312141 -74.13 
L 255.077563 -74.13 
L 254.842985 -74.13 
L 254.608407 -74.13 
L 254.373829 -74.13 
L 254.139251 -74.13 
L 253.904673 -74.13 
z
" style="stroke: #808080; stroke-opacity: 0.5"/>
    </defs>
    <g clip-path="url(#p5d56042063)">
     <use xlink:href="#mdf4a86aa96" x="0" y="288" style="fill: #808080; fill-opacity: 0.5; stroke: #808080; stroke-opacity: 0.5"/>
    </g>
   </g>
   <g id="line2d_1">
    <path d="M 54.513422 213.87 
L 136.381124 213.759371 
L 151.62869 213.504328 
L 162.184697 213.117029 
L 170.629503 212.592602 
L 177.666842 211.941566 
L 183.765868 211.165102 
L 189.395739 210.224437 
L 194.321876 209.183878 
L 199.013435 207.965886 
L 203.235838 206.647051 
L 207.223663 205.177261 
L 210.97691 203.566837 
L 214.730157 201.707169 
L 218.248826 199.709529 
L 221.532917 197.597672 
L 224.817008 195.221407 
L 228.101099 192.553703 
L 231.150613 189.790106 
L 234.200126 186.72492 
L 237.249639 183.331202 
L 240.299153 179.580117 
L 243.114088 175.773763 
L 245.929023 171.610842 
L 248.743958 167.063939 
L 251.558894 162.103985 
L 254.373829 156.700171 
L 257.188764 150.819878 
L 260.0037 144.428599 
L 262.818635 137.489852 
L 265.63357 129.965105 
L 268.448506 121.813682 
L 271.263441 112.992681 
L 274.078376 103.456882 
L 276.893312 93.158653 
L 279.708247 82.047858 
L 282.523182 70.071754 
L 285.338118 57.174898 
L 288.153053 43.299037 
L 288.856787 39.67 
L 288.856787 39.67 
" clip-path="url(#p5d56042063)" style="fill: none; stroke: #000000; stroke-linecap: round"/>
   </g>
   <g id="patch_3">
    <path d="M 42.796253 222.58 
L 42.796253 30.96 
" style="fill: none; stroke: #cccccc; stroke-width: 1.25; stroke-linejoin: miter; stroke-linecap: square"/>
   </g>
   <g id="patch_4">
    <path d="M 42.796253 222.58 
L 300.573955 222.58 
" style="fill: none; stroke: #cccccc; stroke-width: 1.25; stroke-linejoin: miter; stroke-linecap: square"/>
   </g>
   <g id="text_7">
    <!-- (a) -->
    <g style="fill: #262626" transform="translate(42.796253 20.96) scale(0.12 -0.12)">
     <defs>
      <path id="ArialMT-28" d="M 1497 -1347 
Q 1031 -759 709 28 
Q 388 816 388 1659 
Q 388 2403 628 3084 
Q 909 3875 1497 4659 
L 1900 4659 
Q 1522 4009 1400 3731 
Q 1209 3300 1100 2831 
Q 966 2247 966 1656 
Q 966 153 1900 -1347 
L 1497 -1347 
z
" transform="scale(0.015625)"/>
      <path id="ArialMT-61" d="M 2588 409 
Q 2275 144 1986 34 
Q 1697 -75 1366 -75 
Q 819 -75 525 192 
Q 231 459 231 875 
Q 231 1119 342 1320 
Q 453 1522 633 1644 
Q 813 1766 1038 1828 
Q 1203 1872 1538 1913 
Q 2219 1994 2541 2106 
Q 2544 2222 2544 2253 
Q 2544 2597 2384 2738 
Q 2169 2928 1744 2928 
Q 1347 2928 1158 2789 
Q 969 2650 878 2297 
L 328 2372 
Q 403 2725 575 2942 
Q 747 3159 1072 3276 
Q 1397 3394 1825 3394 
Q 2250 3394 2515 3294 
Q 2781 3194 2906 3042 
Q 3031 2891 3081 2659 
Q 3109 2516 3109 2141 
L 3109 1391 
Q 3109 606 3145 398 
Q 3181 191 3288 0 
L 2700 0 
Q 2613 175 2588 409 
z
M 2541 1666 
Q 2234 1541 1622 1453 
Q 1275 1403 1131 1340 
Q 988 1278 909 1158 
Q 831 1038 831 891 
Q 831 666 1001 516 
Q 1172 366 1500 366 
Q 1825 366 2078 508 
Q 2331 650 2450 897 
Q 2541 1088 2541 1459 
L 2541 1666 
z
" transform="scale(0.015625)"/>
      <path id="ArialMT-29" d="M 791 -1347 
L 388 -1347 
Q 1322 153 1322 1656 
Q 1322 2244 1188 2822 
Q 1081 3291 891 3722 
Q 769 4003 388 4659 
L 791 4659 
Q 1378 3875 1659 3084 
Q 1900 2403 1900 1659 
Q 1900 816 1576 28 
Q 1253 -759 791 -1347 
z
" transform="scale(0.015625)"/>
     </defs>
     <use xlink:href="#ArialMT-28"/>
     <use xlink:href="#ArialMT-61" x="33.300781"/>
     <use xlink:href="#ArialMT-29" x="88.916016"/>
    </g>
   </g>
  </g>
  <g id="axes_2">
   <g id="patch_5">
    <path d="M 317.130212 222.58 
L 574.907913 222.58 
L 574.907913 30.96 
L 317.130212 30.96 
z
" style="fill: #ffffff"/>
   </g>
   <g id="matplotlib.axis_3">
    <g id="xtick_7">
     <g id="text_8">
      <!-- 0.0 -->
      <g style="fill: #262626" transform="translate(321.20238 239.953594) scale(0.11 -0.11)">
       <use xlink:href="#ArialMT-30"/>
       <use xlink:href="#ArialMT-2e" x="55.615234"/>
       <use xlink:href="#ArialMT-30" x="83.398438"/>
      </g>
     </g>
    </g>
    <g id="xtick_8">
     <g id="text_9">
      <!-- 0.2 -->
      <g style="fill: #262626" transform="translate(368.071053 239.953594) scale(0.11 -0.11)">
       <use xlink:href="#ArialMT-30"/>
       <use xlink:href="#ArialMT-2e" x="55.615234"/>
       <use xlink:href="#ArialMT-32" x="83.398438"/>
      </g>
     </g>
    </g>
    <g id="xtick_9">
     <g id="text_10">
      <!-- 0.4 -->
      <g style="fill: #262626" transform="translate(414.939726 239.953594) scale(0.11 -0.11)">
       <use xlink:href="#ArialMT-30"/>
       <use xlink:href="#ArialMT-2e" x="55.615234"/>
       <use xlink:href="#ArialMT-34" x="83.398438"/>
      </g>
     </g>
    </g>
    <g id="xtick_10">
     <g id="text_11">
      <!-- 0.6 -->
      <g style="fill: #262626" transform="translate(461.808399 239.953594) scale(0.11 -0.11)">
       <use xlink:href="#ArialMT-30"/>
       <use xlink:href="#ArialMT-2e" x="55.615234"/>
       <use xlink:href="#ArialMT-36" x="83.398438"/>
      </g>
     </g>
    </g>
    <g id="xtick_11">
     <g id="text_12">
      <!-- 0.8 -->
      <g style="fill: #262626" transform="translate(508.677072 239.953594) scale(0.11 -0.11)">
       <use xlink:href="#ArialMT-30"/>
       <use xlink:href="#ArialMT-2e" x="55.615234"/>
       <use xlink:href="#ArialMT-38" x="83.398438"/>
      </g>
     </g>
    </g>
    <g id="xtick_12">
     <g id="text_13">
      <!-- 1.0 -->
      <g style="fill: #262626" transform="translate(555.545745 239.953594) scale(0.11 -0.11)">
       <use xlink:href="#ArialMT-31"/>
       <use xlink:href="#ArialMT-2e" x="55.615234"/>
       <use xlink:href="#ArialMT-30" x="83.398438"/>
      </g>
     </g>
    </g>
   </g>
   <g id="matplotlib.axis_4">
    <g id="ytick_6"/>
    <g id="ytick_7"/>
    <g id="ytick_8"/>
    <g id="ytick_9"/>
    <g id="ytick_10"/>
   </g>
   <g id="PolyCollection_2">
    <defs>
     <path id="m96efc63344" d="M 387.491866 -74.13 
L 387.491866 -127.056569 
L 387.726444 -127.563391 
L 387.961022 -128.073002 
L 388.1956 -128.585388 
L 388.430177 -129.100538 
L 388.664755 -129.618437 
L 388.899333 -130.139072 
L 389.133911 -130.662428 
L 389.368489 -131.18849 
L 389.603067 -131.717243 
L 389.837645 -132.248672 
L 390.072223 -132.78276 
L 390.306801 -133.319491 
L 390.541379 -133.858846 
L 390.775957 -134.40081 
L 391.010535 -134.945364 
L 391.245113 -135.492489 
L 391.479691 -136.042167 
L 391.714269 -136.594378 
L 391.948847 -137.149102 
L 392.183425 -137.706319 
L 392.418003 -138.266008 
L 392.65258 -138.828148 
L 392.887158 -139.392717 
L 393.121736 -139.959692 
L 393.356314 -140.529053 
L 393.590892 -141.100774 
L 393.82547 -141.674832 
L 394.060048 -142.251204 
L 394.294626 -142.829865 
L 394.529204 -143.410789 
L 394.763782 -143.993952 
L 394.99836 -144.579326 
L 395.232938 -145.166887 
L 395.467516 -145.756606 
L 395.702094 -146.348457 
L 395.936672 -146.942412 
L 396.17125 -147.538441 
L 396.405828 -148.136517 
L 396.640405 -148.73661 
L 396.874983 -149.33869 
L 397.109561 -149.942728 
L 397.344139 -150.548691 
L 397.578717 -151.15655 
L 397.813295 -151.766273 
L 398.047873 -152.377826 
L 398.282451 -152.991179 
L 398.517029 -153.606298 
L 398.751607 -154.223149 
L 398.986185 -154.841698 
L 399.220763 -155.461911 
L 399.455341 -156.083754 
L 399.689919 -156.70719 
L 399.924497 -157.332184 
L 400.159075 -157.9587 
L 400.393653 -158.586701 
L 400.628231 -159.21615 
L 400.862808 -159.847009 
L 401.097386 -160.479241 
L 401.331964 -161.112806 
L 401.566542 -161.747667 
L 401.80112 -162.383783 
L 402.035698 -163.021115 
L 402.270276 -163.659623 
L 402.504854 -164.299267 
L 402.739432 -164.940004 
L 402.97401 -165.581794 
L 403.208588 -166.224595 
L 403.443166 -166.868364 
L 403.677744 -167.51306 
L 403.912322 -168.158638 
L 404.1469 -168.805055 
L 404.381478 -169.452268 
L 404.616056 -170.100232 
L 404.850633 -170.748902 
L 405.085211 -171.398234 
L 405.319789 -172.048182 
L 405.554367 -172.6987 
L 405.788945 -173.349742 
L 406.023523 -174.001261 
L 406.258101 -174.653212 
L 406.492679 -175.305545 
L 406.727257 -175.958214 
L 406.961835 -176.611171 
L 407.196413 -177.264368 
L 407.430991 -177.917755 
L 407.665569 -178.571284 
L 407.900147 -179.224906 
L 408.134725 -179.878571 
L 408.369303 -180.532229 
L 408.603881 -181.185829 
L 408.838459 -181.839322 
L 409.073036 -182.492657 
L 409.307614 -183.145781 
L 409.542192 -183.798645 
L 409.77677 -184.451196 
L 410.011348 -185.103382 
L 410.245926 -185.755151 
L 410.480504 -186.40645 
L 410.715082 -187.057228 
L 410.94966 -187.70743 
L 411.184238 -188.357004 
L 411.418816 -189.005896 
L 411.653394 -189.654052 
L 411.887972 -190.301419 
L 412.12255 -190.947943 
L 412.357128 -191.593568 
L 412.591706 -192.238241 
L 412.826284 -192.881907 
L 413.060861 -193.524511 
L 413.295439 -194.165998 
L 413.530017 -194.806313 
L 413.764595 -195.445399 
L 413.999173 -196.083203 
L 414.233751 -196.719668 
L 414.468329 -197.354737 
L 414.702907 -197.988356 
L 414.937485 -198.620468 
L 415.172063 -199.251017 
L 415.406641 -199.879947 
L 415.641219 -200.507201 
L 415.875797 -201.132722 
L 416.110375 -201.756455 
L 416.344953 -202.378342 
L 416.579531 -202.998327 
L 416.814109 -203.616353 
L 417.048687 -204.232364 
L 417.283264 -204.846301 
L 417.517842 -205.458109 
L 417.75242 -206.067731 
L 417.986998 -206.675109 
L 418.221576 -207.280187 
L 418.456154 -207.882908 
L 418.690732 -208.483215 
L 418.92531 -209.08105 
L 419.159888 -209.676358 
L 419.394466 -210.269081 
L 419.629044 -210.859163 
L 419.863622 -211.446546 
L 420.0982 -212.031175 
L 420.332778 -212.612992 
L 420.567356 -213.191941 
L 420.801934 -213.767966 
L 421.036512 -214.34101 
L 421.27109 -214.911017 
L 421.505667 -215.477932 
L 421.740245 -216.041698 
L 421.974823 -216.602259 
L 422.209401 -217.15956 
L 422.443979 -217.713545 
L 422.678557 -218.264159 
L 422.913135 -218.811347 
L 423.147713 -219.355054 
L 423.382291 -219.895225 
L 423.616869 -220.431805 
L 423.851447 -220.96474 
L 424.086025 -221.493976 
L 424.320603 -222.019459 
L 424.555181 -222.541135 
L 424.789759 -223.058952 
L 425.024337 -223.572855 
L 425.258915 -224.082791 
L 425.493492 -224.588709 
L 425.72807 -225.090556 
L 425.962648 -225.58828 
L 426.197226 -226.081828 
L 426.431804 -226.57115 
L 426.666382 -227.056195 
L 426.90096 -227.536911 
L 427.135538 -228.013248 
L 427.370116 -228.485156 
L 427.604694 -228.952586 
L 427.839272 -229.415488 
L 428.07385 -229.873812 
L 428.308428 -230.327511 
L 428.543006 -230.776535 
L 428.777584 -231.220838 
L 429.012162 -231.660371 
L 429.24674 -232.095088 
L 429.481318 -232.524942 
L 429.715895 -232.949887 
L 429.950473 -233.369877 
L 430.185051 -233.784867 
L 430.419629 -234.194811 
L 430.654207 -234.599667 
L 430.888785 -234.999389 
L 431.123363 -235.393934 
L 431.357941 -235.783259 
L 431.592519 -236.167322 
L 431.827097 -236.546082 
L 432.061675 -236.919495 
L 432.296253 -237.287523 
L 432.530831 -237.650123 
L 432.765409 -238.007257 
L 432.999987 -238.358885 
L 433.234565 -238.704969 
L 433.469143 -239.045469 
L 433.70372 -239.380349 
L 433.938298 -239.709571 
L 434.172876 -240.0331 
L 434.407454 -240.350898 
L 434.642032 -240.662931 
L 434.87661 -240.969163 
L 435.111188 -241.269562 
L 435.345766 -241.564093 
L 435.580344 -241.852723 
L 435.814922 -242.13542 
L 436.0495 -242.412153 
L 436.284078 -242.68289 
L 436.518656 -242.947601 
L 436.753234 -243.206256 
L 436.987812 -243.458827 
L 437.22239 -243.705284 
L 437.456968 -243.9456 
L 437.691546 -244.179749 
L 437.926123 -244.407702 
L 438.160701 -244.629435 
L 438.395279 -244.844923 
L 438.629857 -245.054141 
L 438.864435 -245.257065 
L 439.099013 -245.453673 
L 439.333591 -245.643942 
L 439.568169 -245.82785 
L 439.802747 -246.005377 
L 440.037325 -246.176502 
L 440.271903 -246.341206 
L 440.506481 -246.499471 
L 440.741059 -246.651278 
L 440.975637 -246.796609 
L 441.210215 -246.935449 
L 441.444793 -247.067781 
L 441.679371 -247.19359 
L 441.913948 -247.312862 
L 442.148526 -247.425583 
L 442.383104 -247.531741 
L 442.617682 -247.631323 
L 442.85226 -247.724318 
L 443.086838 -247.810715 
L 443.321416 -247.890504 
L 443.555994 -247.963676 
L 443.790572 -248.030223 
L 444.02515 -248.090137 
L 444.259728 -248.143412 
L 444.494306 -248.19004 
L 444.728884 -248.230017 
L 444.963462 -248.263338 
L 445.19804 -248.29 
L 445.432618 -248.309999 
L 445.667196 -248.323333 
L 445.901774 -248.33 
L 446.136351 -248.33 
L 446.370929 -248.323333 
L 446.605507 -248.309999 
L 446.840085 -248.29 
L 447.074663 -248.263338 
L 447.309241 -248.230017 
L 447.543819 -248.19004 
L 447.778397 -248.143412 
L 448.012975 -248.090137 
L 448.247553 -248.030223 
L 448.482131 -247.963676 
L 448.716709 -247.890504 
L 448.951287 -247.810715 
L 449.185865 -247.724318 
L 449.420443 -247.631323 
L 449.655021 -247.531741 
L 449.889599 -247.425583 
L 450.124177 -247.312862 
L 450.358754 -247.19359 
L 450.593332 -247.067781 
L 450.82791 -246.935449 
L 451.062488 -246.796609 
L 451.297066 -246.651278 
L 451.531644 -246.499471 
L 451.766222 -246.341206 
L 452.0008 -246.176502 
L 452.235378 -246.005377 
L 452.469956 -245.82785 
L 452.704534 -245.643942 
L 452.939112 -245.453673 
L 453.17369 -245.257065 
L 453.408268 -245.054141 
L 453.642846 -244.844923 
L 453.877424 -244.629435 
L 454.112002 -244.407702 
L 454.346579 -244.179749 
L 454.581157 -243.9456 
L 454.815735 -243.705284 
L 455.050313 -243.458827 
L 455.284891 -243.206256 
L 455.519469 -242.947601 
L 455.754047 -242.68289 
L 455.988625 -242.412153 
L 456.223203 -242.13542 
L 456.457781 -241.852723 
L 456.692359 -241.564093 
L 456.926937 -241.269562 
L 457.161515 -240.969163 
L 457.396093 -240.662931 
L 457.630671 -240.350898 
L 457.865249 -240.0331 
L 458.099827 -239.709571 
L 458.334405 -239.380349 
L 458.568982 -239.045469 
L 458.80356 -238.704969 
L 459.038138 -238.358885 
L 459.272716 -238.007257 
L 459.507294 -237.650123 
L 459.741872 -237.287523 
L 459.97645 -236.919495 
L 460.211028 -236.546082 
L 460.445606 -236.167322 
L 460.680184 -235.783259 
L 460.914762 -235.393934 
L 461.14934 -234.999389 
L 461.383918 -234.599667 
L 461.618496 -234.194811 
L 461.853074 -233.784867 
L 462.087652 -233.369877 
L 462.32223 -232.949887 
L 462.556807 -232.524942 
L 462.791385 -232.095088 
L 463.025963 -231.660371 
L 463.260541 -231.220838 
L 463.495119 -230.776535 
L 463.729697 -230.327511 
L 463.964275 -229.873812 
L 464.198853 -229.415488 
L 464.433431 -228.952586 
L 464.668009 -228.485156 
L 464.902587 -228.013248 
L 465.137165 -227.536911 
L 465.371743 -227.056195 
L 465.606321 -226.57115 
L 465.840899 -226.081828 
L 466.075477 -225.58828 
L 466.310055 -225.090556 
L 466.544633 -224.588709 
L 466.77921 -224.082791 
L 467.013788 -223.572855 
L 467.248366 -223.058952 
L 467.482944 -222.541135 
L 467.717522 -222.019459 
L 467.9521 -221.493976 
L 468.186678 -220.96474 
L 468.421256 -220.431805 
L 468.655834 -219.895225 
L 468.890412 -219.355054 
L 469.12499 -218.811347 
L 469.359568 -218.264159 
L 469.594146 -217.713545 
L 469.828724 -217.15956 
L 470.063302 -216.602259 
L 470.29788 -216.041698 
L 470.532458 -215.477932 
L 470.767035 -214.911017 
L 471.001613 -214.34101 
L 471.236191 -213.767966 
L 471.470769 -213.191941 
L 471.705347 -212.612992 
L 471.939925 -212.031175 
L 472.174503 -211.446546 
L 472.409081 -210.859163 
L 472.643659 -210.269081 
L 472.878237 -209.676358 
L 473.112815 -209.08105 
L 473.347393 -208.483215 
L 473.581971 -207.882908 
L 473.816549 -207.280187 
L 474.051127 -206.675109 
L 474.285705 -206.067731 
L 474.520283 -205.458109 
L 474.754861 -204.846301 
L 474.989438 -204.232364 
L 475.224016 -203.616353 
L 475.458594 -202.998327 
L 475.693172 -202.378342 
L 475.92775 -201.756455 
L 476.162328 -201.132722 
L 476.396906 -200.507201 
L 476.631484 -199.879947 
L 476.866062 -199.251017 
L 477.10064 -198.620468 
L 477.335218 -197.988356 
L 477.569796 -197.354737 
L 477.804374 -196.719668 
L 478.038952 -196.083203 
L 478.27353 -195.445399 
L 478.508108 -194.806313 
L 478.742686 -194.165998 
L 478.977264 -193.524511 
L 479.211841 -192.881907 
L 479.446419 -192.238241 
L 479.680997 -191.593568 
L 479.915575 -190.947943 
L 480.150153 -190.301419 
L 480.384731 -189.654052 
L 480.619309 -189.005896 
L 480.853887 -188.357004 
L 481.088465 -187.70743 
L 481.323043 -187.057228 
L 481.557621 -186.40645 
L 481.792199 -185.755151 
L 482.026777 -185.103382 
L 482.261355 -184.451196 
L 482.495933 -183.798645 
L 482.730511 -183.145781 
L 482.965089 -182.492657 
L 483.199666 -181.839322 
L 483.434244 -181.185829 
L 483.668822 -180.532229 
L 483.9034 -179.878571 
L 484.137978 -179.224906 
L 484.372556 -178.571284 
L 484.607134 -177.917755 
L 484.841712 -177.264368 
L 485.07629 -176.611171 
L 485.310868 -175.958214 
L 485.545446 -175.305545 
L 485.780024 -174.653212 
L 486.014602 -174.001261 
L 486.24918 -173.349742 
L 486.483758 -172.6987 
L 486.718336 -172.048182 
L 486.952914 -171.398234 
L 487.187492 -170.748902 
L 487.422069 -170.100232 
L 487.656647 -169.452268 
L 487.891225 -168.805055 
L 488.125803 -168.158638 
L 488.360381 -167.51306 
L 488.594959 -166.868364 
L 488.829537 -166.224595 
L 489.064115 -165.581794 
L 489.298693 -164.940004 
L 489.533271 -164.299267 
L 489.767849 -163.659623 
L 490.002427 -163.021115 
L 490.237005 -162.383783 
L 490.471583 -161.747667 
L 490.706161 -161.112806 
L 490.940739 -160.479241 
L 491.175317 -159.847009 
L 491.409894 -159.21615 
L 491.644472 -158.586701 
L 491.87905 -157.9587 
L 492.113628 -157.332184 
L 492.348206 -156.70719 
L 492.582784 -156.083754 
L 492.817362 -155.461911 
L 493.05194 -154.841698 
L 493.286518 -154.223149 
L 493.521096 -153.606298 
L 493.755674 -152.991179 
L 493.990252 -152.377826 
L 494.22483 -151.766273 
L 494.459408 -151.15655 
L 494.693986 -150.548691 
L 494.928564 -149.942728 
L 495.163142 -149.33869 
L 495.39772 -148.73661 
L 495.632297 -148.136517 
L 495.866875 -147.538441 
L 496.101453 -146.942412 
L 496.336031 -146.348457 
L 496.570609 -145.756606 
L 496.805187 -145.166887 
L 497.039765 -144.579326 
L 497.274343 -143.993952 
L 497.508921 -143.410789 
L 497.743499 -142.829865 
L 497.978077 -142.251204 
L 498.212655 -141.674832 
L 498.447233 -141.100774 
L 498.681811 -140.529053 
L 498.916389 -139.959692 
L 499.150967 -139.392717 
L 499.385545 -138.828148 
L 499.620122 -138.266008 
L 499.8547 -137.706319 
L 500.089278 -137.149102 
L 500.323856 -136.594378 
L 500.558434 -136.042167 
L 500.793012 -135.492489 
L 501.02759 -134.945364 
L 501.262168 -134.40081 
L 501.496746 -133.858846 
L 501.731324 -133.319491 
L 501.965902 -132.78276 
L 502.20048 -132.248672 
L 502.435058 -131.717243 
L 502.669636 -131.18849 
L 502.904214 -130.662428 
L 503.138792 -130.139072 
L 503.37337 -129.618437 
L 503.607948 -129.100538 
L 503.842525 -128.585388 
L 504.077103 -128.073002 
L 504.311681 -127.563391 
L 504.546259 -127.056569 
L 504.546259 -74.13 
L 504.546259 -74.13 
L 504.311681 -74.13 
L 504.077103 -74.13 
L 503.842525 -74.13 
L 503.607948 -74.13 
L 503.37337 -74.13 
L 503.138792 -74.13 
L 502.904214 -74.13 
L 502.669636 -74.13 
L 502.435058 -74.13 
L 502.20048 -74.13 
L 501.965902 -74.13 
L 501.731324 -74.13 
L 501.496746 -74.13 
L 501.262168 -74.13 
L 501.02759 -74.13 
L 500.793012 -74.13 
L 500.558434 -74.13 
L 500.323856 -74.13 
L 500.089278 -74.13 
L 499.8547 -74.13 
L 499.620122 -74.13 
L 499.385545 -74.13 
L 499.150967 -74.13 
L 498.916389 -74.13 
L 498.681811 -74.13 
L 498.447233 -74.13 
L 498.212655 -74.13 
L 497.978077 -74.13 
L 497.743499 -74.13 
L 497.508921 -74.13 
L 497.274343 -74.13 
L 497.039765 -74.13 
L 496.805187 -74.13 
L 496.570609 -74.13 
L 496.336031 -74.13 
L 496.101453 -74.13 
L 495.866875 -74.13 
L 495.632297 -74.13 
L 495.39772 -74.13 
L 495.163142 -74.13 
L 494.928564 -74.13 
L 494.693986 -74.13 
L 494.459408 -74.13 
L 494.22483 -74.13 
L 493.990252 -74.13 
L 493.755674 -74.13 
L 493.521096 -74.13 
L 493.286518 -74.13 
L 493.05194 -74.13 
L 492.817362 -74.13 
L 492.582784 -74.13 
L 492.348206 -74.13 
L 492.113628 -74.13 
L 491.87905 -74.13 
L 491.644472 -74.13 
L 491.409894 -74.13 
L 491.175317 -74.13 
L 490.940739 -74.13 
L 490.706161 -74.13 
L 490.471583 -74.13 
L 490.237005 -74.13 
L 490.002427 -74.13 
L 489.767849 -74.13 
L 489.533271 -74.13 
L 489.298693 -74.13 
L 489.064115 -74.13 
L 488.829537 -74.13 
L 488.594959 -74.13 
L 488.360381 -74.13 
L 488.125803 -74.13 
L 487.891225 -74.13 
L 487.656647 -74.13 
L 487.422069 -74.13 
L 487.187492 -74.13 
L 486.952914 -74.13 
L 486.718336 -74.13 
L 486.483758 -74.13 
L 486.24918 -74.13 
L 486.014602 -74.13 
L 485.780024 -74.13 
L 485.545446 -74.13 
L 485.310868 -74.13 
L 485.07629 -74.13 
L 484.841712 -74.13 
L 484.607134 -74.13 
L 484.372556 -74.13 
L 484.137978 -74.13 
L 483.9034 -74.13 
L 483.668822 -74.13 
L 483.434244 -74.13 
L 483.199666 -74.13 
L 482.965089 -74.13 
L 482.730511 -74.13 
L 482.495933 -74.13 
L 482.261355 -74.13 
L 482.026777 -74.13 
L 481.792199 -74.13 
L 481.557621 -74.13 
L 481.323043 -74.13 
L 481.088465 -74.13 
L 480.853887 -74.13 
L 480.619309 -74.13 
L 480.384731 -74.13 
L 480.150153 -74.13 
L 479.915575 -74.13 
L 479.680997 -74.13 
L 479.446419 -74.13 
L 479.211841 -74.13 
L 478.977264 -74.13 
L 478.742686 -74.13 
L 478.508108 -74.13 
L 478.27353 -74.13 
L 478.038952 -74.13 
L 477.804374 -74.13 
L 477.569796 -74.13 
L 477.335218 -74.13 
L 477.10064 -74.13 
L 476.866062 -74.13 
L 476.631484 -74.13 
L 476.396906 -74.13 
L 476.162328 -74.13 
L 475.92775 -74.13 
L 475.693172 -74.13 
L 475.458594 -74.13 
L 475.224016 -74.13 
L 474.989438 -74.13 
L 474.754861 -74.13 
L 474.520283 -74.13 
L 474.285705 -74.13 
L 474.051127 -74.13 
L 473.816549 -74.13 
L 473.581971 -74.13 
L 473.347393 -74.13 
L 473.112815 -74.13 
L 472.878237 -74.13 
L 472.643659 -74.13 
L 472.409081 -74.13 
L 472.174503 -74.13 
L 471.939925 -74.13 
L 471.705347 -74.13 
L 471.470769 -74.13 
L 471.236191 -74.13 
L 471.001613 -74.13 
L 470.767035 -74.13 
L 470.532458 -74.13 
L 470.29788 -74.13 
L 470.063302 -74.13 
L 469.828724 -74.13 
L 469.594146 -74.13 
L 469.359568 -74.13 
L 469.12499 -74.13 
L 468.890412 -74.13 
L 468.655834 -74.13 
L 468.421256 -74.13 
L 468.186678 -74.13 
L 467.9521 -74.13 
L 467.717522 -74.13 
L 467.482944 -74.13 
L 467.248366 -74.13 
L 467.013788 -74.13 
L 466.77921 -74.13 
L 466.544633 -74.13 
L 466.310055 -74.13 
L 466.075477 -74.13 
L 465.840899 -74.13 
L 465.606321 -74.13 
L 465.371743 -74.13 
L 465.137165 -74.13 
L 464.902587 -74.13 
L 464.668009 -74.13 
L 464.433431 -74.13 
L 464.198853 -74.13 
L 463.964275 -74.13 
L 463.729697 -74.13 
L 463.495119 -74.13 
L 463.260541 -74.13 
L 463.025963 -74.13 
L 462.791385 -74.13 
L 462.556807 -74.13 
L 462.32223 -74.13 
L 462.087652 -74.13 
L 461.853074 -74.13 
L 461.618496 -74.13 
L 461.383918 -74.13 
L 461.14934 -74.13 
L 460.914762 -74.13 
L 460.680184 -74.13 
L 460.445606 -74.13 
L 460.211028 -74.13 
L 459.97645 -74.13 
L 459.741872 -74.13 
L 459.507294 -74.13 
L 459.272716 -74.13 
L 459.038138 -74.13 
L 458.80356 -74.13 
L 458.568982 -74.13 
L 458.334405 -74.13 
L 458.099827 -74.13 
L 457.865249 -74.13 
L 457.630671 -74.13 
L 457.396093 -74.13 
L 457.161515 -74.13 
L 456.926937 -74.13 
L 456.692359 -74.13 
L 456.457781 -74.13 
L 456.223203 -74.13 
L 455.988625 -74.13 
L 455.754047 -74.13 
L 455.519469 -74.13 
L 455.284891 -74.13 
L 455.050313 -74.13 
L 454.815735 -74.13 
L 454.581157 -74.13 
L 454.346579 -74.13 
L 454.112002 -74.13 
L 453.877424 -74.13 
L 453.642846 -74.13 
L 453.408268 -74.13 
L 453.17369 -74.13 
L 452.939112 -74.13 
L 452.704534 -74.13 
L 452.469956 -74.13 
L 452.235378 -74.13 
L 452.0008 -74.13 
L 451.766222 -74.13 
L 451.531644 -74.13 
L 451.297066 -74.13 
L 451.062488 -74.13 
L 450.82791 -74.13 
L 450.593332 -74.13 
L 450.358754 -74.13 
L 450.124177 -74.13 
L 449.889599 -74.13 
L 449.655021 -74.13 
L 449.420443 -74.13 
L 449.185865 -74.13 
L 448.951287 -74.13 
L 448.716709 -74.13 
L 448.482131 -74.13 
L 448.247553 -74.13 
L 448.012975 -74.13 
L 447.778397 -74.13 
L 447.543819 -74.13 
L 447.309241 -74.13 
L 447.074663 -74.13 
L 446.840085 -74.13 
L 446.605507 -74.13 
L 446.370929 -74.13 
L 446.136351 -74.13 
L 445.901774 -74.13 
L 445.667196 -74.13 
L 445.432618 -74.13 
L 445.19804 -74.13 
L 444.963462 -74.13 
L 444.728884 -74.13 
L 444.494306 -74.13 
L 444.259728 -74.13 
L 444.02515 -74.13 
L 443.790572 -74.13 
L 443.555994 -74.13 
L 443.321416 -74.13 
L 443.086838 -74.13 
L 442.85226 -74.13 
L 442.617682 -74.13 
L 442.383104 -74.13 
L 442.148526 -74.13 
L 441.913948 -74.13 
L 441.679371 -74.13 
L 441.444793 -74.13 
L 441.210215 -74.13 
L 440.975637 -74.13 
L 440.741059 -74.13 
L 440.506481 -74.13 
L 440.271903 -74.13 
L 440.037325 -74.13 
L 439.802747 -74.13 
L 439.568169 -74.13 
L 439.333591 -74.13 
L 439.099013 -74.13 
L 438.864435 -74.13 
L 438.629857 -74.13 
L 438.395279 -74.13 
L 438.160701 -74.13 
L 437.926123 -74.13 
L 437.691546 -74.13 
L 437.456968 -74.13 
L 437.22239 -74.13 
L 436.987812 -74.13 
L 436.753234 -74.13 
L 436.518656 -74.13 
L 436.284078 -74.13 
L 436.0495 -74.13 
L 435.814922 -74.13 
L 435.580344 -74.13 
L 435.345766 -74.13 
L 435.111188 -74.13 
L 434.87661 -74.13 
L 434.642032 -74.13 
L 434.407454 -74.13 
L 434.172876 -74.13 
L 433.938298 -74.13 
L 433.70372 -74.13 
L 433.469143 -74.13 
L 433.234565 -74.13 
L 432.999987 -74.13 
L 432.765409 -74.13 
L 432.530831 -74.13 
L 432.296253 -74.13 
L 432.061675 -74.13 
L 431.827097 -74.13 
L 431.592519 -74.13 
L 431.357941 -74.13 
L 431.123363 -74.13 
L 430.888785 -74.13 
L 430.654207 -74.13 
L 430.419629 -74.13 
L 430.185051 -74.13 
L 429.950473 -74.13 
L 429.715895 -74.13 
L 429.481318 -74.13 
L 429.24674 -74.13 
L 429.012162 -74.13 
L 428.777584 -74.13 
L 428.543006 -74.13 
L 428.308428 -74.13 
L 428.07385 -74.13 
L 427.839272 -74.13 
L 427.604694 -74.13 
L 427.370116 -74.13 
L 427.135538 -74.13 
L 426.90096 -74.13 
L 426.666382 -74.13 
L 426.431804 -74.13 
L 426.197226 -74.13 
L 425.962648 -74.13 
L 425.72807 -74.13 
L 425.493492 -74.13 
L 425.258915 -74.13 
L 425.024337 -74.13 
L 424.789759 -74.13 
L 424.555181 -74.13 
L 424.320603 -74.13 
L 424.086025 -74.13 
L 423.851447 -74.13 
L 423.616869 -74.13 
L 423.382291 -74.13 
L 423.147713 -74.13 
L 422.913135 -74.13 
L 422.678557 -74.13 
L 422.443979 -74.13 
L 422.209401 -74.13 
L 421.974823 -74.13 
L 421.740245 -74.13 
L 421.505667 -74.13 
L 421.27109 -74.13 
L 421.036512 -74.13 
L 420.801934 -74.13 
L 420.567356 -74.13 
L 420.332778 -74.13 
L 420.0982 -74.13 
L 419.863622 -74.13 
L 419.629044 -74.13 
L 419.394466 -74.13 
L 419.159888 -74.13 
L 418.92531 -74.13 
L 418.690732 -74.13 
L 418.456154 -74.13 
L 418.221576 -74.13 
L 417.986998 -74.13 
L 417.75242 -74.13 
L 417.517842 -74.13 
L 417.283264 -74.13 
L 417.048687 -74.13 
L 416.814109 -74.13 
L 416.579531 -74.13 
L 416.344953 -74.13 
L 416.110375 -74.13 
L 415.875797 -74.13 
L 415.641219 -74.13 
L 415.406641 -74.13 
L 415.172063 -74.13 
L 414.937485 -74.13 
L 414.702907 -74.13 
L 414.468329 -74.13 
L 414.233751 -74.13 
L 413.999173 -74.13 
L 413.764595 -74.13 
L 413.530017 -74.13 
L 413.295439 -74.13 
L 413.060861 -74.13 
L 412.826284 -74.13 
L 412.591706 -74.13 
L 412.357128 -74.13 
L 412.12255 -74.13 
L 411.887972 -74.13 
L 411.653394 -74.13 
L 411.418816 -74.13 
L 411.184238 -74.13 
L 410.94966 -74.13 
L 410.715082 -74.13 
L 410.480504 -74.13 
L 410.245926 -74.13 
L 410.011348 -74.13 
L 409.77677 -74.13 
L 409.542192 -74.13 
L 409.307614 -74.13 
L 409.073036 -74.13 
L 408.838459 -74.13 
L 408.603881 -74.13 
L 408.369303 -74.13 
L 408.134725 -74.13 
L 407.900147 -74.13 
L 407.665569 -74.13 
L 407.430991 -74.13 
L 407.196413 -74.13 
L 406.961835 -74.13 
L 406.727257 -74.13 
L 406.492679 -74.13 
L 406.258101 -74.13 
L 406.023523 -74.13 
L 405.788945 -74.13 
L 405.554367 -74.13 
L 405.319789 -74.13 
L 405.085211 -74.13 
L 404.850633 -74.13 
L 404.616056 -74.13 
L 404.381478 -74.13 
L 404.1469 -74.13 
L 403.912322 -74.13 
L 403.677744 -74.13 
L 403.443166 -74.13 
L 403.208588 -74.13 
L 402.97401 -74.13 
L 402.739432 -74.13 
L 402.504854 -74.13 
L 402.270276 -74.13 
L 402.035698 -74.13 
L 401.80112 -74.13 
L 401.566542 -74.13 
L 401.331964 -74.13 
L 401.097386 -74.13 
L 400.862808 -74.13 
L 400.628231 -74.13 
L 400.393653 -74.13 
L 400.159075 -74.13 
L 399.924497 -74.13 
L 399.689919 -74.13 
L 399.455341 -74.13 
L 399.220763 -74.13 
L 398.986185 -74.13 
L 398.751607 -74.13 
L 398.517029 -74.13 
L 398.282451 -74.13 
L 398.047873 -74.13 
L 397.813295 -74.13 
L 397.578717 -74.13 
L 397.344139 -74.13 
L 397.109561 -74.13 
L 396.874983 -74.13 
L 396.640405 -74.13 
L 396.405828 -74.13 
L 396.17125 -74.13 
L 395.936672 -74.13 
L 395.702094 -74.13 
L 395.467516 -74.13 
L 395.232938 -74.13 
L 394.99836 -74.13 
L 394.763782 -74.13 
L 394.529204 -74.13 
L 394.294626 -74.13 
L 394.060048 -74.13 
L 393.82547 -74.13 
L 393.590892 -74.13 
L 393.356314 -74.13 
L 393.121736 -74.13 
L 392.887158 -74.13 
L 392.65258 -74.13 
L 392.418003 -74.13 
L 392.183425 -74.13 
L 391.948847 -74.13 
L 391.714269 -74.13 
L 391.479691 -74.13 
L 391.245113 -74.13 
L 391.010535 -74.13 
L 390.775957 -74.13 
L 390.541379 -74.13 
L 390.306801 -74.13 
L 390.072223 -74.13 
L 389.837645 -74.13 
L 389.603067 -74.13 
L 389.368489 -74.13 
L 389.133911 -74.13 
L 388.899333 -74.13 
L 388.664755 -74.13 
L 388.430177 -74.13 
L 388.1956 -74.13 
L 387.961022 -74.13 
L 387.726444 -74.13 
L 387.491866 -74.13 
z
" style="stroke: #808080; stroke-opacity: 0.5"/>
    </defs>
    <g clip-path="url(#p0e3456e726)">
     <use xlink:href="#m96efc63344" x="0" y="288" style="fill: #808080; fill-opacity: 0.5; stroke: #808080; stroke-opacity: 0.5"/>
    </g>
   </g>
   <g id="line2d_2">
    <path d="M 328.84738 212.399737 
L 333.538939 211.731403 
L 337.761342 210.912637 
L 341.514589 209.965933 
L 345.033258 208.849732 
L 348.317349 207.570856 
L 351.366862 206.145342 
L 354.181798 204.598106 
L 356.996733 202.802131 
L 359.811668 200.730891 
L 362.392026 198.567704 
L 364.972383 196.130721 
L 367.552741 193.400652 
L 370.133098 190.359561 
L 372.713455 186.991431 
L 375.528391 182.928342 
L 378.343326 178.446832 
L 381.158261 173.539131 
L 384.207774 167.740107 
L 387.257288 161.447452 
L 390.541379 154.141154 
L 394.060048 145.748796 
L 398.047873 135.622174 
L 402.739432 123.059996 
L 411.418816 98.994104 
L 416.814109 84.383647 
L 420.567356 74.808059 
L 423.851447 67.03526 
L 426.666382 60.943805 
L 429.24674 55.904912 
L 431.592519 51.832678 
L 433.70372 48.619651 
L 435.580344 46.147277 
L 437.456968 44.0544 
L 439.099013 42.546327 
L 440.741059 41.348722 
L 442.148526 40.574417 
L 443.555994 40.036324 
L 444.963462 39.736662 
L 446.370929 39.676667 
L 447.778397 39.856588 
L 449.185865 40.275682 
L 450.593332 40.932219 
L 452.0008 41.823498 
L 453.642846 43.155077 
L 455.284891 44.793744 
L 456.926937 46.730438 
L 458.80356 49.295031 
L 460.914762 52.606066 
L 463.025963 56.339629 
L 465.371743 60.943805 
L 467.9521 66.506024 
L 471.001613 73.65899 
L 474.520283 82.541891 
L 478.977264 94.475489 
L 495.866875 140.461559 
L 499.8547 150.293681 
L 503.37337 158.381563 
L 506.657461 165.377478 
L 509.706974 171.367903 
L 512.756487 176.858495 
L 515.571423 181.481501 
L 518.386358 185.682845 
L 521.201293 189.474033 
L 524.016229 192.871358 
L 526.831164 195.894924 
L 529.646099 198.567704 
L 532.461035 200.914659 
L 535.27597 202.961941 
L 538.090905 204.73618 
L 541.140418 206.380864 
L 544.189932 207.76899 
L 547.474023 209.012848 
L 550.992692 210.097117 
L 554.745939 211.015508 
L 558.968342 211.808636 
L 563.190745 212.399737 
L 563.190745 212.399737 
" clip-path="url(#p0e3456e726)" style="fill: none; stroke: #000000; stroke-linecap: round"/>
   </g>
   <g id="patch_6">
    <path d="M 317.130212 222.58 
L 317.130212 30.96 
" style="fill: none; stroke: #cccccc; stroke-width: 1.25; stroke-linejoin: miter; stroke-linecap: square"/>
   </g>
   <g id="patch_7">
    <path d="M 317.130212 222.58 
L 574.907913 222.58 
" style="fill: none; stroke: #cccccc; stroke-width: 1.25; stroke-linejoin: miter; stroke-linecap: square"/>
   </g>
   <g id="text_14">
    <!-- (b) -->
    <g style="fill: #262626" transform="translate(317.130212 20.96) scale(0.12 -0.12)">
     <defs>
      <path id="ArialMT-62" d="M 941 0 
L 419 0 
L 419 4581 
L 981 4581 
L 981 2947 
Q 1338 3394 1891 3394 
Q 2197 3394 2470 3270 
Q 2744 3147 2920 2923 
Q 3097 2700 3197 2384 
Q 3297 2069 3297 1709 
Q 3297 856 2875 390 
Q 2453 -75 1863 -75 
Q 1275 -75 941 416 
L 941 0 
z
M 934 1684 
Q 934 1088 1097 822 
Q 1363 388 1816 388 
Q 2184 388 2453 708 
Q 2722 1028 2722 1663 
Q 2722 2313 2464 2622 
Q 2206 2931 1841 2931 
Q 1472 2931 1203 2611 
Q 934 2291 934 1684 
z
" transform="scale(0.015625)"/>
     </defs>
     <use xlink:href="#ArialMT-28"/>
     <use xlink:href="#ArialMT-62" x="33.300781"/>
     <use xlink:href="#ArialMT-29" x="88.916016"/>
    </g>
   </g>
  </g>
  <g id="axes_3">
   <g id="patch_8">
    <path d="M 591.46417 222.58 
L 849.241872 222.58 
L 849.241872 30.96 
L 591.46417 30.96 
z
" style="fill: #ffffff"/>
   </g>
   <g id="matplotlib.axis_5">
    <g id="xtick_13">
     <g id="text_15">
      <!-- 0.0 -->
      <g style="fill: #262626" transform="translate(595.536338 239.953594) scale(0.11 -0.11)">
       <use xlink:href="#ArialMT-30"/>
       <use xlink:href="#ArialMT-2e" x="55.615234"/>
       <use xlink:href="#ArialMT-30" x="83.398438"/>
      </g>
     </g>
    </g>
    <g id="xtick_14">
     <g id="text_16">
      <!-- 0.2 -->
      <g style="fill: #262626" transform="translate(642.405011 239.953594) scale(0.11 -0.11)">
       <use xlink:href="#ArialMT-30"/>
       <use xlink:href="#ArialMT-2e" x="55.615234"/>
       <use xlink:href="#ArialMT-32" x="83.398438"/>
      </g>
     </g>
    </g>
    <g id="xtick_15">
     <g id="text_17">
      <!-- 0.4 -->
      <g style="fill: #262626" transform="translate(689.273684 239.953594) scale(0.11 -0.11)">
       <use xlink:href="#ArialMT-30"/>
       <use xlink:href="#ArialMT-2e" x="55.615234"/>
       <use xlink:href="#ArialMT-34" x="83.398438"/>
      </g>
     </g>
    </g>
    <g id="xtick_16">
     <g id="text_18">
      <!-- 0.6 -->
      <g style="fill: #262626" transform="translate(736.142357 239.953594) scale(0.11 -0.11)">
       <use xlink:href="#ArialMT-30"/>
       <use xlink:href="#ArialMT-2e" x="55.615234"/>
       <use xlink:href="#ArialMT-36" x="83.398438"/>
      </g>
     </g>
    </g>
    <g id="xtick_17">
     <g id="text_19">
      <!-- 0.8 -->
      <g style="fill: #262626" transform="translate(783.01103 239.953594) scale(0.11 -0.11)">
       <use xlink:href="#ArialMT-30"/>
       <use xlink:href="#ArialMT-2e" x="55.615234"/>
       <use xlink:href="#ArialMT-38" x="83.398438"/>
      </g>
     </g>
    </g>
    <g id="xtick_18">
     <g id="text_20">
      <!-- 1.0 -->
      <g style="fill: #262626" transform="translate(829.879703 239.953594) scale(0.11 -0.11)">
       <use xlink:href="#ArialMT-31"/>
       <use xlink:href="#ArialMT-2e" x="55.615234"/>
       <use xlink:href="#ArialMT-30" x="83.398438"/>
      </g>
     </g>
    </g>
   </g>
   <g id="matplotlib.axis_6">
    <g id="ytick_11"/>
    <g id="ytick_12"/>
    <g id="ytick_13"/>
    <g id="ytick_14"/>
    <g id="ytick_15"/>
   </g>
   <g id="PolyCollection_3">
    <defs>
     <path id="mbe6ff9e5bf" d="M 614.910235 -74.13 
L 614.910235 -195.735501 
L 615.144813 -194.841347 
L 615.379391 -193.952834 
L 615.613969 -193.069933 
L 615.848547 -192.192613 
L 616.083125 -191.320847 
L 616.317703 -190.454604 
L 616.552281 -189.593855 
L 616.786859 -188.738571 
L 617.021437 -187.888723 
L 617.256015 -187.044282 
L 617.490593 -186.20522 
L 617.725171 -185.371508 
L 617.959749 -184.543118 
L 618.194327 -183.720021 
L 618.428905 -182.902189 
L 618.663483 -182.089593 
L 618.89806 -181.282207 
L 619.132638 -180.480001 
L 619.367216 -179.682949 
L 619.601794 -178.891023 
L 619.836372 -178.104195 
L 620.07095 -177.322438 
L 620.305528 -176.545724 
L 620.540106 -175.774027 
L 620.774684 -175.007319 
L 621.009262 -174.245574 
L 621.24384 -173.488764 
L 621.478418 -172.736863 
L 621.712996 -171.989845 
L 621.947574 -171.247683 
L 622.182152 -170.510351 
L 622.41673 -169.777821 
L 622.651308 -169.05007 
L 622.885885 -168.327069 
L 623.120463 -167.608795 
L 623.355041 -166.895219 
L 623.589619 -166.186318 
L 623.824197 -165.482066 
L 624.058775 -164.782436 
L 624.293353 -164.087404 
L 624.527931 -163.396945 
L 624.762509 -162.711033 
L 624.997087 -162.029644 
L 625.231665 -161.352752 
L 625.466243 -160.680334 
L 625.700821 -160.012363 
L 625.935399 -159.348816 
L 626.169977 -158.689668 
L 626.404555 -158.034895 
L 626.639133 -157.384473 
L 626.873711 -156.738377 
L 627.108288 -156.096584 
L 627.342866 -155.459069 
L 627.577444 -154.825809 
L 627.812022 -154.19678 
L 628.0466 -153.571959 
L 628.281178 -152.951322 
L 628.515756 -152.334845 
L 628.750334 -151.722506 
L 628.984912 -151.114281 
L 629.21949 -150.510148 
L 629.454068 -149.910082 
L 629.688646 -149.314062 
L 629.923224 -148.722065 
L 630.157802 -148.134067 
L 630.39238 -147.550047 
L 630.626958 -146.969982 
L 630.861536 -146.393849 
L 631.096113 -145.821627 
L 631.330691 -145.253293 
L 631.565269 -144.688826 
L 631.799847 -144.128202 
L 632.034425 -143.571401 
L 632.269003 -143.018401 
L 632.503581 -142.46918 
L 632.738159 -141.923716 
L 632.972737 -141.381988 
L 633.207315 -140.843975 
L 633.441893 -140.309655 
L 633.676471 -139.779008 
L 633.911049 -139.252012 
L 634.145627 -138.728646 
L 634.380205 -138.20889 
L 634.614783 -137.692722 
L 634.849361 -137.180122 
L 635.083939 -136.671069 
L 635.318516 -136.165544 
L 635.553094 -135.663525 
L 635.787672 -135.164992 
L 636.02225 -134.669925 
L 636.256828 -134.178304 
L 636.491406 -133.690109 
L 636.725984 -133.20532 
L 636.960562 -132.723918 
L 637.19514 -132.245881 
L 637.429718 -131.771192 
L 637.664296 -131.299829 
L 637.898874 -130.831775 
L 638.133452 -130.367009 
L 638.133452 -74.13 
L 638.133452 -74.13 
L 637.898874 -74.13 
L 637.664296 -74.13 
L 637.429718 -74.13 
L 637.19514 -74.13 
L 636.960562 -74.13 
L 636.725984 -74.13 
L 636.491406 -74.13 
L 636.256828 -74.13 
L 636.02225 -74.13 
L 635.787672 -74.13 
L 635.553094 -74.13 
L 635.318516 -74.13 
L 635.083939 -74.13 
L 634.849361 -74.13 
L 634.614783 -74.13 
L 634.380205 -74.13 
L 634.145627 -74.13 
L 633.911049 -74.13 
L 633.676471 -74.13 
L 633.441893 -74.13 
L 633.207315 -74.13 
L 632.972737 -74.13 
L 632.738159 -74.13 
L 632.503581 -74.13 
L 632.269003 -74.13 
L 632.034425 -74.13 
L 631.799847 -74.13 
L 631.565269 -74.13 
L 631.330691 -74.13 
L 631.096113 -74.13 
L 630.861536 -74.13 
L 630.626958 -74.13 
L 630.39238 -74.13 
L 630.157802 -74.13 
L 629.923224 -74.13 
L 629.688646 -74.13 
L 629.454068 -74.13 
L 629.21949 -74.13 
L 628.984912 -74.13 
L 628.750334 -74.13 
L 628.515756 -74.13 
L 628.281178 -74.13 
L 628.0466 -74.13 
L 627.812022 -74.13 
L 627.577444 -74.13 
L 627.342866 -74.13 
L 627.108288 -74.13 
L 626.873711 -74.13 
L 626.639133 -74.13 
L 626.404555 -74.13 
L 626.169977 -74.13 
L 625.935399 -74.13 
L 625.700821 -74.13 
L 625.466243 -74.13 
L 625.231665 -74.13 
L 624.997087 -74.13 
L 624.762509 -74.13 
L 624.527931 -74.13 
L 624.293353 -74.13 
L 624.058775 -74.13 
L 623.824197 -74.13 
L 623.589619 -74.13 
L 623.355041 -74.13 
L 623.120463 -74.13 
L 622.885885 -74.13 
L 622.651308 -74.13 
L 622.41673 -74.13 
L 622.182152 -74.13 
L 621.947574 -74.13 
L 621.712996 -74.13 
L 621.478418 -74.13 
L 621.24384 -74.13 
L 621.009262 -74.13 
L 620.774684 -74.13 
L 620.540106 -74.13 
L 620.305528 -74.13 
L 620.07095 -74.13 
L 619.836372 -74.13 
L 619.601794 -74.13 
L 619.367216 -74.13 
L 619.132638 -74.13 
L 618.89806 -74.13 
L 618.663483 -74.13 
L 618.428905 -74.13 
L 618.194327 -74.13 
L 617.959749 -74.13 
L 617.725171 -74.13 
L 617.490593 -74.13 
L 617.256015 -74.13 
L 617.021437 -74.13 
L 616.786859 -74.13 
L 616.552281 -74.13 
L 616.317703 -74.13 
L 616.083125 -74.13 
L 615.848547 -74.13 
L 615.613969 -74.13 
L 615.379391 -74.13 
L 615.144813 -74.13 
L 614.910235 -74.13 
z
" style="stroke: #808080; stroke-opacity: 0.5"/>
    </defs>
    <g clip-path="url(#p6b5a5fcc8a)">
     <use xlink:href="#mbe6ff9e5bf" x="0" y="288" style="fill: #808080; fill-opacity: 0.5; stroke: #808080; stroke-opacity: 0.5"/>
    </g>
   </g>
   <g id="line2d_3">
    <path d="M 603.181338 39.67 
L 606.230852 54.931856 
L 609.280365 69.032969 
L 612.329878 82.047858 
L 615.379391 94.047166 
L 618.428905 105.097811 
L 621.478418 115.263137 
L 624.293353 123.912596 
L 627.108288 131.903416 
L 629.923224 139.277935 
L 632.738159 146.076284 
L 635.553094 152.336475 
L 638.36803 158.094488 
L 641.182965 163.384352 
L 643.9979 168.238224 
L 647.047414 173.03976 
L 650.096927 177.40156 
L 653.14644 181.35771 
L 656.195953 184.940149 
L 659.245467 188.178771 
L 662.29498 191.101525 
L 665.344493 193.734512 
L 668.628584 196.273868 
L 671.912676 198.533628 
L 675.431345 200.67419 
L 678.950014 202.553383 
L 682.703261 204.300323 
L 686.691086 205.898014 
L 690.913489 207.334936 
L 695.37047 208.605003 
L 700.062029 209.70732 
L 705.222744 210.685484 
L 710.852614 211.5212 
L 717.186219 212.229745 
L 724.458135 212.809724 
L 732.902941 213.254208 
L 743.458948 213.577517 
L 757.768203 213.777861 
L 782.164309 213.862847 
L 837.524703 213.87 
L 837.524703 213.87 
" clip-path="url(#p6b5a5fcc8a)" style="fill: none; stroke: #000000; stroke-linecap: round"/>
   </g>
   <g id="patch_9">
    <path d="M 591.46417 222.58 
L 591.46417 30.96 
" style="fill: none; stroke: #cccccc; stroke-width: 1.25; stroke-linejoin: miter; stroke-linecap: square"/>
   </g>
   <g id="patch_10">
    <path d="M 591.46417 222.58 
L 849.241872 222.58 
" style="fill: none; stroke: #cccccc; stroke-width: 1.25; stroke-linejoin: miter; stroke-linecap: square"/>
   </g>
   <g id="text_21">
    <!-- (c) -->
    <g style="fill: #262626" transform="translate(591.46417 20.96) scale(0.12 -0.12)">
     <defs>
      <path id="ArialMT-63" d="M 2588 1216 
L 3141 1144 
Q 3050 572 2676 248 
Q 2303 -75 1759 -75 
Q 1078 -75 664 370 
Q 250 816 250 1647 
Q 250 2184 428 2587 
Q 606 2991 970 3192 
Q 1334 3394 1763 3394 
Q 2303 3394 2647 3120 
Q 2991 2847 3088 2344 
L 2541 2259 
Q 2463 2594 2264 2762 
Q 2066 2931 1784 2931 
Q 1359 2931 1093 2626 
Q 828 2322 828 1663 
Q 828 994 1084 691 
Q 1341 388 1753 388 
Q 2084 388 2306 591 
Q 2528 794 2588 1216 
z
" transform="scale(0.015625)"/>
     </defs>
     <use xlink:href="#ArialMT-28"/>
     <use xlink:href="#ArialMT-63" x="33.300781"/>
     <use xlink:href="#ArialMT-29" x="83.300781"/>
    </g>
   </g>
  </g>
  <g id="text_22">
   <!-- Individual threshold: $\phi$ -->
   <g style="fill: #262626" transform="translate(353.28 281.76) scale(0.16 -0.16)">
    <defs>
     <path id="ArialMT-49" d="M 597 0 
L 597 4581 
L 1203 4581 
L 1203 0 
L 597 0 
z
" transform="scale(0.015625)"/>
     <path id="ArialMT-6e" d="M 422 0 
L 422 3319 
L 928 3319 
L 928 2847 
Q 1294 3394 1984 3394 
Q 2284 3394 2536 3286 
Q 2788 3178 2913 3003 
Q 3038 2828 3088 2588 
Q 3119 2431 3119 2041 
L 3119 0 
L 2556 0 
L 2556 2019 
Q 2556 2363 2490 2533 
Q 2425 2703 2258 2804 
Q 2091 2906 1866 2906 
Q 1506 2906 1245 2678 
Q 984 2450 984 1813 
L 984 0 
L 422 0 
z
" transform="scale(0.015625)"/>
     <path id="ArialMT-64" d="M 2575 0 
L 2575 419 
Q 2259 -75 1647 -75 
Q 1250 -75 917 144 
Q 584 363 401 755 
Q 219 1147 219 1656 
Q 219 2153 384 2558 
Q 550 2963 881 3178 
Q 1213 3394 1622 3394 
Q 1922 3394 2156 3267 
Q 2391 3141 2538 2938 
L 2538 4581 
L 3097 4581 
L 3097 0 
L 2575 0 
z
M 797 1656 
Q 797 1019 1065 703 
Q 1334 388 1700 388 
Q 2069 388 2326 689 
Q 2584 991 2584 1609 
Q 2584 2291 2321 2609 
Q 2059 2928 1675 2928 
Q 1300 2928 1048 2622 
Q 797 2316 797 1656 
z
" transform="scale(0.015625)"/>
     <path id="ArialMT-69" d="M 425 3934 
L 425 4581 
L 988 4581 
L 988 3934 
L 425 3934 
z
M 425 0 
L 425 3319 
L 988 3319 
L 988 0 
L 425 0 
z
" transform="scale(0.015625)"/>
     <path id="ArialMT-76" d="M 1344 0 
L 81 3319 
L 675 3319 
L 1388 1331 
Q 1503 1009 1600 663 
Q 1675 925 1809 1294 
L 2547 3319 
L 3125 3319 
L 1869 0 
L 1344 0 
z
" transform="scale(0.015625)"/>
     <path id="ArialMT-75" d="M 2597 0 
L 2597 488 
Q 2209 -75 1544 -75 
Q 1250 -75 995 37 
Q 741 150 617 320 
Q 494 491 444 738 
Q 409 903 409 1263 
L 409 3319 
L 972 3319 
L 972 1478 
Q 972 1038 1006 884 
Q 1059 663 1231 536 
Q 1403 409 1656 409 
Q 1909 409 2131 539 
Q 2353 669 2445 892 
Q 2538 1116 2538 1541 
L 2538 3319 
L 3100 3319 
L 3100 0 
L 2597 0 
z
" transform="scale(0.015625)"/>
     <path id="ArialMT-6c" d="M 409 0 
L 409 4581 
L 972 4581 
L 972 0 
L 409 0 
z
" transform="scale(0.015625)"/>
     <path id="ArialMT-20" transform="scale(0.015625)"/>
     <path id="ArialMT-74" d="M 1650 503 
L 1731 6 
Q 1494 -44 1306 -44 
Q 1000 -44 831 53 
Q 663 150 594 308 
Q 525 466 525 972 
L 525 2881 
L 113 2881 
L 113 3319 
L 525 3319 
L 525 4141 
L 1084 4478 
L 1084 3319 
L 1650 3319 
L 1650 2881 
L 1084 2881 
L 1084 941 
Q 1084 700 1114 631 
Q 1144 563 1211 522 
Q 1278 481 1403 481 
Q 1497 481 1650 503 
z
" transform="scale(0.015625)"/>
     <path id="ArialMT-68" d="M 422 0 
L 422 4581 
L 984 4581 
L 984 2938 
Q 1378 3394 1978 3394 
Q 2347 3394 2619 3248 
Q 2891 3103 3008 2847 
Q 3125 2591 3125 2103 
L 3125 0 
L 2563 0 
L 2563 2103 
Q 2563 2525 2380 2717 
Q 2197 2909 1863 2909 
Q 1613 2909 1392 2779 
Q 1172 2650 1078 2428 
Q 984 2206 984 1816 
L 984 0 
L 422 0 
z
" transform="scale(0.015625)"/>
     <path id="ArialMT-72" d="M 416 0 
L 416 3319 
L 922 3319 
L 922 2816 
Q 1116 3169 1280 3281 
Q 1444 3394 1641 3394 
Q 1925 3394 2219 3213 
L 2025 2691 
Q 1819 2813 1613 2813 
Q 1428 2813 1281 2702 
Q 1134 2591 1072 2394 
Q 978 2094 978 1738 
L 978 0 
L 416 0 
z
" transform="scale(0.015625)"/>
     <path id="ArialMT-65" d="M 2694 1069 
L 3275 997 
Q 3138 488 2766 206 
Q 2394 -75 1816 -75 
Q 1088 -75 661 373 
Q 234 822 234 1631 
Q 234 2469 665 2931 
Q 1097 3394 1784 3394 
Q 2450 3394 2872 2941 
Q 3294 2488 3294 1666 
Q 3294 1616 3291 1516 
L 816 1516 
Q 847 969 1125 678 
Q 1403 388 1819 388 
Q 2128 388 2347 550 
Q 2566 713 2694 1069 
z
M 847 1978 
L 2700 1978 
Q 2663 2397 2488 2606 
Q 2219 2931 1791 2931 
Q 1403 2931 1139 2672 
Q 875 2413 847 1978 
z
" transform="scale(0.015625)"/>
     <path id="ArialMT-73" d="M 197 991 
L 753 1078 
Q 800 744 1014 566 
Q 1228 388 1613 388 
Q 2000 388 2187 545 
Q 2375 703 2375 916 
Q 2375 1106 2209 1216 
Q 2094 1291 1634 1406 
Q 1016 1563 777 1677 
Q 538 1791 414 1992 
Q 291 2194 291 2438 
Q 291 2659 392 2848 
Q 494 3038 669 3163 
Q 800 3259 1026 3326 
Q 1253 3394 1513 3394 
Q 1903 3394 2198 3281 
Q 2494 3169 2634 2976 
Q 2775 2784 2828 2463 
L 2278 2388 
Q 2241 2644 2061 2787 
Q 1881 2931 1553 2931 
Q 1166 2931 1000 2803 
Q 834 2675 834 2503 
Q 834 2394 903 2306 
Q 972 2216 1119 2156 
Q 1203 2125 1616 2013 
Q 2213 1853 2448 1751 
Q 2684 1650 2818 1456 
Q 2953 1263 2953 975 
Q 2953 694 2789 445 
Q 2625 197 2315 61 
Q 2006 -75 1616 -75 
Q 969 -75 630 194 
Q 291 463 197 991 
z
" transform="scale(0.015625)"/>
     <path id="ArialMT-6f" d="M 213 1659 
Q 213 2581 725 3025 
Q 1153 3394 1769 3394 
Q 2453 3394 2887 2945 
Q 3322 2497 3322 1706 
Q 3322 1066 3130 698 
Q 2938 331 2570 128 
Q 2203 -75 1769 -75 
Q 1072 -75 642 372 
Q 213 819 213 1659 
z
M 791 1659 
Q 791 1022 1069 705 
Q 1347 388 1769 388 
Q 2188 388 2466 706 
Q 2744 1025 2744 1678 
Q 2744 2294 2464 2611 
Q 2184 2928 1769 2928 
Q 1347 2928 1069 2612 
Q 791 2297 791 1659 
z
" transform="scale(0.015625)"/>
     <path id="ArialMT-3a" d="M 578 2678 
L 578 3319 
L 1219 3319 
L 1219 2678 
L 578 2678 
z
M 578 0 
L 578 641 
L 1219 641 
L 1219 0 
L 578 0 
z
" transform="scale(0.015625)"/>
     <path id="DejaVuSans-Oblique-3d5" d="M 2991 4863 
L 2738 3572 
Q 3363 3572 3684 3094 
Q 4016 2606 3850 1747 
Q 3681 888 3159 400 
Q 2653 -78 2028 -78 
L 1784 -1331 
L 1213 -1331 
L 1456 -78 
Q 834 -78 509 400 
Q 178 888 347 1747 
Q 513 2606 1034 3094 
Q 1544 3572 2166 3572 
L 2419 4863 
L 2991 4863 
z
M 2128 434 
Q 2481 434 2784 756 
Q 3116 1116 3244 1747 
Q 3369 2372 3169 2738 
Q 2991 3059 2638 3059 
L 2128 434 
z
M 1556 434 
L 2066 3059 
Q 1716 3059 1413 2738 
Q 1072 2372 953 1747 
Q 834 1116 1028 756 
Q 1203 434 1556 434 
z
" transform="scale(0.015625)"/>
    </defs>
    <use xlink:href="#ArialMT-49" transform="translate(0 0.015625)"/>
    <use xlink:href="#ArialMT-6e" transform="translate(27.783203 0.015625)"/>
    <use xlink:href="#ArialMT-64" transform="translate(83.398438 0.015625)"/>
    <use xlink:href="#ArialMT-69" transform="translate(139.013672 0.015625)"/>
    <use xlink:href="#ArialMT-76" transform="translate(161.230469 0.015625)"/>
    <use xlink:href="#ArialMT-69" transform="translate(211.230469 0.015625)"/>
    <use xlink:href="#ArialMT-64" transform="translate(233.447266 0.015625)"/>
    <use xlink:href="#ArialMT-75" transform="translate(289.0625 0.015625)"/>
    <use xlink:href="#ArialMT-61" transform="translate(344.677734 0.015625)"/>
    <use xlink:href="#ArialMT-6c" transform="translate(400.292969 0.015625)"/>
    <use xlink:href="#ArialMT-20" transform="translate(422.509766 0.015625)"/>
    <use xlink:href="#ArialMT-74" transform="translate(450.292969 0.015625)"/>
    <use xlink:href="#ArialMT-68" transform="translate(478.076172 0.015625)"/>
    <use xlink:href="#ArialMT-72" transform="translate(533.691406 0.015625)"/>
    <use xlink:href="#ArialMT-65" transform="translate(566.992188 0.015625)"/>
    <use xlink:href="#ArialMT-73" transform="translate(622.607422 0.015625)"/>
    <use xlink:href="#ArialMT-68" transform="translate(672.607422 0.015625)"/>
    <use xlink:href="#ArialMT-6f" transform="translate(728.222656 0.015625)"/>
    <use xlink:href="#ArialMT-6c" transform="translate(783.837891 0.015625)"/>
    <use xlink:href="#ArialMT-64" transform="translate(806.054688 0.015625)"/>
    <use xlink:href="#ArialMT-3a" transform="translate(861.669922 0.015625)"/>
    <use xlink:href="#ArialMT-20" transform="translate(889.453125 0.015625)"/>
    <use xlink:href="#DejaVuSans-Oblique-3d5" transform="translate(917.236328 0.015625)"/>
   </g>
  </g>
  <g id="text_23">
   <!-- Density: f(x) -->
   <g style="fill: #262626" transform="translate(28.9275 186.67) rotate(-90) scale(0.16 -0.16)">
    <defs>
     <path id="ArialMT-44" d="M 494 0 
L 494 4581 
L 2072 4581 
Q 2606 4581 2888 4516 
Q 3281 4425 3559 4188 
Q 3922 3881 4101 3404 
Q 4281 2928 4281 2316 
Q 4281 1794 4159 1391 
Q 4038 988 3847 723 
Q 3656 459 3429 307 
Q 3203 156 2883 78 
Q 2563 0 2147 0 
L 494 0 
z
M 1100 541 
L 2078 541 
Q 2531 541 2789 625 
Q 3047 709 3200 863 
Q 3416 1078 3536 1442 
Q 3656 1806 3656 2325 
Q 3656 3044 3420 3430 
Q 3184 3816 2847 3947 
Q 2603 4041 2063 4041 
L 1100 4041 
L 1100 541 
z
" transform="scale(0.015625)"/>
     <path id="ArialMT-79" d="M 397 -1278 
L 334 -750 
Q 519 -800 656 -800 
Q 844 -800 956 -737 
Q 1069 -675 1141 -563 
Q 1194 -478 1313 -144 
Q 1328 -97 1363 -6 
L 103 3319 
L 709 3319 
L 1400 1397 
Q 1534 1031 1641 628 
Q 1738 1016 1872 1384 
L 2581 3319 
L 3144 3319 
L 1881 -56 
Q 1678 -603 1566 -809 
Q 1416 -1088 1222 -1217 
Q 1028 -1347 759 -1347 
Q 597 -1347 397 -1278 
z
" transform="scale(0.015625)"/>
     <path id="ArialMT-66" d="M 556 0 
L 556 2881 
L 59 2881 
L 59 3319 
L 556 3319 
L 556 3672 
Q 556 4006 616 4169 
Q 697 4388 901 4523 
Q 1106 4659 1475 4659 
Q 1713 4659 2000 4603 
L 1916 4113 
Q 1741 4144 1584 4144 
Q 1328 4144 1222 4034 
Q 1116 3925 1116 3625 
L 1116 3319 
L 1763 3319 
L 1763 2881 
L 1116 2881 
L 1116 0 
L 556 0 
z
" transform="scale(0.015625)"/>
     <path id="ArialMT-78" d="M 47 0 
L 1259 1725 
L 138 3319 
L 841 3319 
L 1350 2541 
Q 1494 2319 1581 2169 
Q 1719 2375 1834 2534 
L 2394 3319 
L 3066 3319 
L 1919 1756 
L 3153 0 
L 2463 0 
L 1781 1031 
L 1600 1309 
L 728 0 
L 47 0 
z
" transform="scale(0.015625)"/>
    </defs>
    <use xlink:href="#ArialMT-44"/>
    <use xlink:href="#ArialMT-65" x="72.216797"/>
    <use xlink:href="#ArialMT-6e" x="127.832031"/>
    <use xlink:href="#ArialMT-73" x="183.447266"/>
    <use xlink:href="#ArialMT-69" x="233.447266"/>
    <use xlink:href="#ArialMT-74" x="255.664062"/>
    <use xlink:href="#ArialMT-79" x="283.447266"/>
    <use xlink:href="#ArialMT-3a" x="333.447266"/>
    <use xlink:href="#ArialMT-20" x="361.230469"/>
    <use xlink:href="#ArialMT-66" x="389.013672"/>
    <use xlink:href="#ArialMT-28" x="416.796875"/>
    <use xlink:href="#ArialMT-78" x="450.097656"/>
    <use xlink:href="#ArialMT-29" x="500.097656"/>
   </g>
  </g>
 </g>
 <defs>
  <clipPath id="p5d56042063">
   <rect x="42.796253" y="30.96" width="257.777702" height="191.62"/>
  </clipPath>
  <clipPath id="p0e3456e726">
   <rect x="317.130212" y="30.96" width="257.777702" height="191.62"/>
  </clipPath>
  <clipPath id="p6b5a5fcc8a">
   <rect x="591.46417" y="30.96" width="257.777702" height="191.62"/>
  </clipPath>
 </defs>
</svg>
