<?xml version="1.0" encoding="utf-8" standalone="no"?>
<!DOCTYPE svg PUBLIC "-//W3C//DTD SVG 1.1//EN"
  "http://www.w3.org/Graphics/SVG/1.1/DTD/svg11.dtd">
<svg xmlns:xlink="http://www.w3.org/1999/xlink" width="1130.4pt" height="286.415625pt" viewBox="0 0 1130.4 286.415625" xmlns="http://www.w3.org/2000/svg" version="1.1">
 <metadata>
  <rdf:RDF xmlns:dc="http://purl.org/dc/elements/1.1/" xmlns:cc="http://creativecommons.org/ns#" xmlns:rdf="http://www.w3.org/1999/02/22-rdf-syntax-ns#">
   <cc:Work>
    <dc:type rdf:resource="http://purl.org/dc/dcmitype/StillImage"/>
    <dc:date>2024-11-26T19:56:09.852882</dc:date>
    <dc:format>image/svg+xml</dc:format>
    <dc:creator>
     <cc:Agent>
      <dc:title>Matplotlib v3.8.4, https://matplotlib.org/</dc:title>
     </cc:Agent>
    </dc:creator>
   </cc:Work>
  </rdf:RDF>
 </metadata>
 <defs>
  <style type="text/css">*{stroke-linejoin: round; stroke-linecap: butt}</style>
 </defs>
 <g id="figure_1">
  <g id="patch_1">
   <path d="M 0 286.415625 
L 1130.4 286.415625 
L 1130.4 0 
L 0 0 
z
" style="fill: #ffffff"/>
  </g>
  <g id="axes_1">
   <g id="patch_2">
    <path d="M 24.96 220.755625 
L 289.8 220.755625 
L 289.8 25.935625 
L 24.96 25.935625 
z
" style="fill: #ffffff"/>
   </g>
   <g id="matplotlib.axis_1">
    <g id="xtick_1">
     <g id="text_1">
      <!-- 0.0 -->
      <g style="fill: #262626" transform="translate(30.048182 237.413437) scale(0.1 -0.1)">
       <defs>
        <path id="ArialMT-30" d="M 266 2259 
Q 266 3072 433 3567 
Q 600 4063 929 4331 
Q 1259 4600 1759 4600 
Q 2128 4600 2406 4451 
Q 2684 4303 2865 4023 
Q 3047 3744 3150 3342 
Q 3253 2941 3253 2259 
Q 3253 1453 3087 958 
Q 2922 463 2592 192 
Q 2263 -78 1759 -78 
Q 1097 -78 719 397 
Q 266 969 266 2259 
z
M 844 2259 
Q 844 1131 1108 757 
Q 1372 384 1759 384 
Q 2147 384 2411 759 
Q 2675 1134 2675 2259 
Q 2675 3391 2411 3762 
Q 2147 4134 1753 4134 
Q 1366 4134 1134 3806 
Q 844 3388 844 2259 
z
" transform="scale(0.015625)"/>
        <path id="ArialMT-2e" d="M 581 0 
L 581 641 
L 1222 641 
L 1222 0 
L 581 0 
z
" transform="scale(0.015625)"/>
       </defs>
       <use xlink:href="#ArialMT-30"/>
       <use xlink:href="#ArialMT-2e" x="55.615234"/>
       <use xlink:href="#ArialMT-30" x="83.398438"/>
      </g>
     </g>
    </g>
    <g id="xtick_2">
     <g id="text_2">
      <!-- 0.2 -->
      <g style="fill: #262626" transform="translate(78.200909 237.413437) scale(0.1 -0.1)">
       <defs>
        <path id="ArialMT-32" d="M 3222 541 
L 3222 0 
L 194 0 
Q 188 203 259 391 
Q 375 700 629 1000 
Q 884 1300 1366 1694 
Q 2113 2306 2375 2664 
Q 2638 3022 2638 3341 
Q 2638 3675 2398 3904 
Q 2159 4134 1775 4134 
Q 1369 4134 1125 3890 
Q 881 3647 878 3216 
L 300 3275 
Q 359 3922 746 4261 
Q 1134 4600 1788 4600 
Q 2447 4600 2831 4234 
Q 3216 3869 3216 3328 
Q 3216 3053 3103 2787 
Q 2991 2522 2730 2228 
Q 2469 1934 1863 1422 
Q 1356 997 1212 845 
Q 1069 694 975 541 
L 3222 541 
z
" transform="scale(0.015625)"/>
       </defs>
       <use xlink:href="#ArialMT-30"/>
       <use xlink:href="#ArialMT-2e" x="55.615234"/>
       <use xlink:href="#ArialMT-32" x="83.398438"/>
      </g>
     </g>
    </g>
    <g id="xtick_3">
     <g id="text_3">
      <!-- 0.4 -->
      <g style="fill: #262626" transform="translate(126.353636 237.413437) scale(0.1 -0.1)">
       <defs>
        <path id="ArialMT-34" d="M 2069 0 
L 2069 1097 
L 81 1097 
L 81 1613 
L 2172 4581 
L 2631 4581 
L 2631 1613 
L 3250 1613 
L 3250 1097 
L 2631 1097 
L 2631 0 
L 2069 0 
z
M 2069 1613 
L 2069 3678 
L 634 1613 
L 2069 1613 
z
" transform="scale(0.015625)"/>
       </defs>
       <use xlink:href="#ArialMT-30"/>
       <use xlink:href="#ArialMT-2e" x="55.615234"/>
       <use xlink:href="#ArialMT-34" x="83.398438"/>
      </g>
     </g>
    </g>
    <g id="xtick_4">
     <g id="text_4">
      <!-- 0.6 -->
      <g style="fill: #262626" transform="translate(174.506364 237.413437) scale(0.1 -0.1)">
       <defs>
        <path id="ArialMT-36" d="M 3184 3459 
L 2625 3416 
Q 2550 3747 2413 3897 
Q 2184 4138 1850 4138 
Q 1581 4138 1378 3988 
Q 1113 3794 959 3422 
Q 806 3050 800 2363 
Q 1003 2672 1297 2822 
Q 1591 2972 1913 2972 
Q 2475 2972 2870 2558 
Q 3266 2144 3266 1488 
Q 3266 1056 3080 686 
Q 2894 316 2569 119 
Q 2244 -78 1831 -78 
Q 1128 -78 684 439 
Q 241 956 241 2144 
Q 241 3472 731 4075 
Q 1159 4600 1884 4600 
Q 2425 4600 2770 4297 
Q 3116 3994 3184 3459 
z
M 888 1484 
Q 888 1194 1011 928 
Q 1134 663 1356 523 
Q 1578 384 1822 384 
Q 2178 384 2434 671 
Q 2691 959 2691 1453 
Q 2691 1928 2437 2201 
Q 2184 2475 1800 2475 
Q 1419 2475 1153 2201 
Q 888 1928 888 1484 
z
" transform="scale(0.015625)"/>
       </defs>
       <use xlink:href="#ArialMT-30"/>
       <use xlink:href="#ArialMT-2e" x="55.615234"/>
       <use xlink:href="#ArialMT-36" x="83.398438"/>
      </g>
     </g>
    </g>
    <g id="xtick_5">
     <g id="text_5">
      <!-- 0.8 -->
      <g style="fill: #262626" transform="translate(222.659091 237.413437) scale(0.1 -0.1)">
       <defs>
        <path id="ArialMT-38" d="M 1131 2484 
Q 781 2613 612 2850 
Q 444 3088 444 3419 
Q 444 3919 803 4259 
Q 1163 4600 1759 4600 
Q 2359 4600 2725 4251 
Q 3091 3903 3091 3403 
Q 3091 3084 2923 2848 
Q 2756 2613 2416 2484 
Q 2838 2347 3058 2040 
Q 3278 1734 3278 1309 
Q 3278 722 2862 322 
Q 2447 -78 1769 -78 
Q 1091 -78 675 323 
Q 259 725 259 1325 
Q 259 1772 486 2073 
Q 713 2375 1131 2484 
z
M 1019 3438 
Q 1019 3113 1228 2906 
Q 1438 2700 1772 2700 
Q 2097 2700 2305 2904 
Q 2513 3109 2513 3406 
Q 2513 3716 2298 3927 
Q 2084 4138 1766 4138 
Q 1444 4138 1231 3931 
Q 1019 3725 1019 3438 
z
M 838 1322 
Q 838 1081 952 856 
Q 1066 631 1291 507 
Q 1516 384 1775 384 
Q 2178 384 2440 643 
Q 2703 903 2703 1303 
Q 2703 1709 2433 1975 
Q 2163 2241 1756 2241 
Q 1359 2241 1098 1978 
Q 838 1716 838 1322 
z
" transform="scale(0.015625)"/>
       </defs>
       <use xlink:href="#ArialMT-30"/>
       <use xlink:href="#ArialMT-2e" x="55.615234"/>
       <use xlink:href="#ArialMT-38" x="83.398438"/>
      </g>
     </g>
    </g>
    <g id="xtick_6">
     <g id="text_6">
      <!-- 1.0 -->
      <g style="fill: #262626" transform="translate(270.811818 237.413437) scale(0.1 -0.1)">
       <defs>
        <path id="ArialMT-31" d="M 2384 0 
L 1822 0 
L 1822 3584 
Q 1619 3391 1289 3197 
Q 959 3003 697 2906 
L 697 3450 
Q 1169 3672 1522 3987 
Q 1875 4303 2022 4600 
L 2384 4600 
L 2384 0 
z
" transform="scale(0.015625)"/>
       </defs>
       <use xlink:href="#ArialMT-31"/>
       <use xlink:href="#ArialMT-2e" x="55.615234"/>
       <use xlink:href="#ArialMT-30" x="83.398438"/>
      </g>
     </g>
    </g>
   </g>
   <g id="matplotlib.axis_2">
    <g id="ytick_1"/>
    <g id="ytick_2"/>
    <g id="ytick_3"/>
    <g id="ytick_4"/>
    <g id="ytick_5"/>
    <g id="ytick_6"/>
    <g id="ytick_7"/>
    <g id="ytick_8"/>
    <g id="ytick_9"/>
   </g>
   <g id="PolyCollection_1">
    <defs>
     <path id="m1cd2a9aff0" d="M 241.852127 -74.515455 
L 241.852127 -131.691606 
L 242.093131 -132.164133 
L 242.334136 -132.640004 
L 242.575141 -133.119238 
L 242.816145 -133.601855 
L 243.05715 -134.087874 
L 243.298155 -134.577316 
L 243.539159 -135.070201 
L 243.780164 -135.566549 
L 244.021168 -136.066379 
L 244.262173 -136.569714 
L 244.503178 -137.076572 
L 244.744182 -137.586974 
L 244.985187 -138.100942 
L 245.226192 -138.618496 
L 245.467196 -139.139656 
L 245.708201 -139.664444 
L 245.949206 -140.19288 
L 246.19021 -140.724986 
L 246.431215 -141.260783 
L 246.672219 -141.800292 
L 246.913224 -142.343534 
L 247.154229 -142.890532 
L 247.395233 -143.441306 
L 247.636238 -143.995879 
L 247.877243 -144.554272 
L 248.118247 -145.116508 
L 248.359252 -145.682607 
L 248.600257 -146.252593 
L 248.841261 -146.826487 
L 249.082266 -147.404312 
L 249.323271 -147.98609 
L 249.564275 -148.571844 
L 249.80528 -149.161596 
L 250.046284 -149.755369 
L 250.287289 -150.353186 
L 250.528294 -150.955069 
L 250.769298 -151.561043 
L 251.010303 -152.171129 
L 251.251308 -152.785352 
L 251.492312 -153.403734 
L 251.733317 -154.026299 
L 251.974322 -154.65307 
L 252.215326 -155.284072 
L 252.456331 -155.919328 
L 252.697336 -156.558861 
L 252.93834 -157.202696 
L 253.179345 -157.850857 
L 253.420349 -158.503368 
L 253.661354 -159.160254 
L 253.902359 -159.821538 
L 254.143363 -160.487245 
L 254.384368 -161.157401 
L 254.625373 -161.832029 
L 254.866377 -162.511154 
L 255.107382 -163.194802 
L 255.348387 -163.882998 
L 255.589391 -164.575766 
L 255.830396 -165.273133 
L 256.0714 -165.975122 
L 256.312405 -166.681761 
L 256.55341 -167.393074 
L 256.794414 -168.109087 
L 257.035419 -168.829827 
L 257.276424 -169.555319 
L 257.517428 -170.285588 
L 257.758433 -171.020663 
L 257.999438 -171.760568 
L 258.240442 -172.50533 
L 258.481447 -173.254976 
L 258.722452 -174.009532 
L 258.963456 -174.769025 
L 259.204461 -175.533482 
L 259.445465 -176.30293 
L 259.68647 -177.077396 
L 259.927475 -177.856908 
L 260.168479 -178.641492 
L 260.409484 -179.431177 
L 260.650489 -180.225989 
L 260.891493 -181.025957 
L 261.132498 -181.831108 
L 261.373503 -182.641471 
L 261.614507 -183.457073 
L 261.855512 -184.277942 
L 262.096517 -185.104108 
L 262.337521 -185.935598 
L 262.578526 -186.77244 
L 262.81953 -187.614665 
L 263.060535 -188.4623 
L 263.30154 -189.315374 
L 263.542544 -190.173916 
L 263.783549 -191.037956 
L 264.024554 -191.907523 
L 264.265558 -192.782647 
L 264.506563 -193.663356 
L 264.747568 -194.54968 
L 264.988572 -195.44165 
L 265.229577 -196.339296 
L 265.470581 -197.242647 
L 265.711586 -198.151733 
L 265.711586 -74.515455 
L 265.711586 -74.515455 
L 265.470581 -74.515455 
L 265.229577 -74.515455 
L 264.988572 -74.515455 
L 264.747568 -74.515455 
L 264.506563 -74.515455 
L 264.265558 -74.515455 
L 264.024554 -74.515455 
L 263.783549 -74.515455 
L 263.542544 -74.515455 
L 263.30154 -74.515455 
L 263.060535 -74.515455 
L 262.81953 -74.515455 
L 262.578526 -74.515455 
L 262.337521 -74.515455 
L 262.096517 -74.515455 
L 261.855512 -74.515455 
L 261.614507 -74.515455 
L 261.373503 -74.515455 
L 261.132498 -74.515455 
L 260.891493 -74.515455 
L 260.650489 -74.515455 
L 260.409484 -74.515455 
L 260.168479 -74.515455 
L 259.927475 -74.515455 
L 259.68647 -74.515455 
L 259.445465 -74.515455 
L 259.204461 -74.515455 
L 258.963456 -74.515455 
L 258.722452 -74.515455 
L 258.481447 -74.515455 
L 258.240442 -74.515455 
L 257.999438 -74.515455 
L 257.758433 -74.515455 
L 257.517428 -74.515455 
L 257.276424 -74.515455 
L 257.035419 -74.515455 
L 256.794414 -74.515455 
L 256.55341 -74.515455 
L 256.312405 -74.515455 
L 256.0714 -74.515455 
L 255.830396 -74.515455 
L 255.589391 -74.515455 
L 255.348387 -74.515455 
L 255.107382 -74.515455 
L 254.866377 -74.515455 
L 254.625373 -74.515455 
L 254.384368 -74.515455 
L 254.143363 -74.515455 
L 253.902359 -74.515455 
L 253.661354 -74.515455 
L 253.420349 -74.515455 
L 253.179345 -74.515455 
L 252.93834 -74.515455 
L 252.697336 -74.515455 
L 252.456331 -74.515455 
L 252.215326 -74.515455 
L 251.974322 -74.515455 
L 251.733317 -74.515455 
L 251.492312 -74.515455 
L 251.251308 -74.515455 
L 251.010303 -74.515455 
L 250.769298 -74.515455 
L 250.528294 -74.515455 
L 250.287289 -74.515455 
L 250.046284 -74.515455 
L 249.80528 -74.515455 
L 249.564275 -74.515455 
L 249.323271 -74.515455 
L 249.082266 -74.515455 
L 248.841261 -74.515455 
L 248.600257 -74.515455 
L 248.359252 -74.515455 
L 248.118247 -74.515455 
L 247.877243 -74.515455 
L 247.636238 -74.515455 
L 247.395233 -74.515455 
L 247.154229 -74.515455 
L 246.913224 -74.515455 
L 246.672219 -74.515455 
L 246.431215 -74.515455 
L 246.19021 -74.515455 
L 245.949206 -74.515455 
L 245.708201 -74.515455 
L 245.467196 -74.515455 
L 245.226192 -74.515455 
L 244.985187 -74.515455 
L 244.744182 -74.515455 
L 244.503178 -74.515455 
L 244.262173 -74.515455 
L 244.021168 -74.515455 
L 243.780164 -74.515455 
L 243.539159 -74.515455 
L 243.298155 -74.515455 
L 243.05715 -74.515455 
L 242.816145 -74.515455 
L 242.575141 -74.515455 
L 242.334136 -74.515455 
L 242.093131 -74.515455 
L 241.852127 -74.515455 
z
" style="stroke: #808080; stroke-opacity: 0.5"/>
    </defs>
    <g clip-path="url(#p42a657ad33)">
     <use xlink:href="#m1cd2a9aff0" x="0" y="286.415625" style="fill: #808080; fill-opacity: 0.5; stroke: #808080; stroke-opacity: 0.5"/>
    </g>
   </g>
   <g id="line2d_1">
    <path d="M 36.998182 211.90017 
L 120.867797 211.789931 
L 136.533099 211.534632 
L 147.378307 211.146224 
L 156.054474 210.619696 
L 163.284614 209.965525 
L 169.550734 209.184849 
L 175.093841 208.283035 
L 180.154939 207.246587 
L 184.975031 206.032563 
L 189.313115 204.717235 
L 193.410194 203.250585 
L 197.266268 201.642849 
L 200.881338 199.909463 
L 204.496407 197.930825 
L 207.870472 195.837931 
L 211.244537 193.481829 
L 214.377598 191.03475 
L 217.510658 188.314123 
L 220.643718 185.294927 
L 223.776779 181.950341 
L 226.668834 178.549424 
L 229.56089 174.822718 
L 232.452946 170.74462 
L 235.345001 166.287943 
L 238.237057 161.423841 
L 241.129113 156.121738 
L 244.021168 150.349246 
L 246.913224 144.072091 
L 249.80528 137.254029 
L 252.697336 129.856764 
L 255.589391 121.839859 
L 258.481447 113.160649 
L 261.373503 103.774154 
L 264.265558 93.632978 
L 267.157614 82.687222 
L 270.04967 70.884377 
L 272.941725 58.169232 
L 275.833781 44.483763 
L 277.761818 34.79108 
L 277.761818 34.79108 
" clip-path="url(#p42a657ad33)" style="fill: none; stroke: #000000; stroke-linecap: round"/>
   </g>
   <g id="patch_3">
    <path d="M 24.96 220.755625 
L 24.96 25.935625 
" style="fill: none; stroke: #cccccc; stroke-width: 1.25; stroke-linejoin: miter; stroke-linecap: square"/>
   </g>
   <g id="patch_4">
    <path d="M 24.96 220.755625 
L 289.8 220.755625 
" style="fill: none; stroke: #cccccc; stroke-width: 1.25; stroke-linejoin: miter; stroke-linecap: square"/>
   </g>
   <g id="text_7">
    <!-- (a) -->
    <g style="fill: #262626" transform="translate(24.96 15.935625) scale(0.12 -0.12)">
     <defs>
      <path id="ArialMT-28" d="M 1497 -1347 
Q 1031 -759 709 28 
Q 388 816 388 1659 
Q 388 2403 628 3084 
Q 909 3875 1497 4659 
L 1900 4659 
Q 1522 4009 1400 3731 
Q 1209 3300 1100 2831 
Q 966 2247 966 1656 
Q 966 153 1900 -1347 
L 1497 -1347 
z
" transform="scale(0.015625)"/>
      <path id="ArialMT-61" d="M 2588 409 
Q 2275 144 1986 34 
Q 1697 -75 1366 -75 
Q 819 -75 525 192 
Q 231 459 231 875 
Q 231 1119 342 1320 
Q 453 1522 633 1644 
Q 813 1766 1038 1828 
Q 1203 1872 1538 1913 
Q 2219 1994 2541 2106 
Q 2544 2222 2544 2253 
Q 2544 2597 2384 2738 
Q 2169 2928 1744 2928 
Q 1347 2928 1158 2789 
Q 969 2650 878 2297 
L 328 2372 
Q 403 2725 575 2942 
Q 747 3159 1072 3276 
Q 1397 3394 1825 3394 
Q 2250 3394 2515 3294 
Q 2781 3194 2906 3042 
Q 3031 2891 3081 2659 
Q 3109 2516 3109 2141 
L 3109 1391 
Q 3109 606 3145 398 
Q 3181 191 3288 0 
L 2700 0 
Q 2613 175 2588 409 
z
M 2541 1666 
Q 2234 1541 1622 1453 
Q 1275 1403 1131 1340 
Q 988 1278 909 1158 
Q 831 1038 831 891 
Q 831 666 1001 516 
Q 1172 366 1500 366 
Q 1825 366 2078 508 
Q 2331 650 2450 897 
Q 2541 1088 2541 1459 
L 2541 1666 
z
" transform="scale(0.015625)"/>
      <path id="ArialMT-29" d="M 791 -1347 
L 388 -1347 
Q 1322 153 1322 1656 
Q 1322 2244 1188 2822 
Q 1081 3291 891 3722 
Q 769 4003 388 4659 
L 791 4659 
Q 1378 3875 1659 3084 
Q 1900 2403 1900 1659 
Q 1900 816 1576 28 
Q 1253 -759 791 -1347 
z
" transform="scale(0.015625)"/>
     </defs>
     <use xlink:href="#ArialMT-28"/>
     <use xlink:href="#ArialMT-61" x="33.300781"/>
     <use xlink:href="#ArialMT-29" x="88.916016"/>
    </g>
   </g>
  </g>
  <g id="axes_2">
   <g id="patch_5">
    <path d="M 302.76 220.755625 
L 567.6 220.755625 
L 567.6 25.935625 
L 302.76 25.935625 
z
" style="fill: #ffffff"/>
   </g>
   <g id="matplotlib.axis_3">
    <g id="xtick_7">
     <g id="text_8">
      <!-- 0.0 -->
      <g style="fill: #262626" transform="translate(307.848182 237.413437) scale(0.1 -0.1)">
       <use xlink:href="#ArialMT-30"/>
       <use xlink:href="#ArialMT-2e" x="55.615234"/>
       <use xlink:href="#ArialMT-30" x="83.398438"/>
      </g>
     </g>
    </g>
    <g id="xtick_8">
     <g id="text_9">
      <!-- 0.2 -->
      <g style="fill: #262626" transform="translate(356.000909 237.413437) scale(0.1 -0.1)">
       <use xlink:href="#ArialMT-30"/>
       <use xlink:href="#ArialMT-2e" x="55.615234"/>
       <use xlink:href="#ArialMT-32" x="83.398438"/>
      </g>
     </g>
    </g>
    <g id="xtick_9">
     <g id="text_10">
      <!-- 0.4 -->
      <g style="fill: #262626" transform="translate(404.153636 237.413437) scale(0.1 -0.1)">
       <use xlink:href="#ArialMT-30"/>
       <use xlink:href="#ArialMT-2e" x="55.615234"/>
       <use xlink:href="#ArialMT-34" x="83.398438"/>
      </g>
     </g>
    </g>
    <g id="xtick_10">
     <g id="text_11">
      <!-- 0.6 -->
      <g style="fill: #262626" transform="translate(452.306364 237.413437) scale(0.1 -0.1)">
       <use xlink:href="#ArialMT-30"/>
       <use xlink:href="#ArialMT-2e" x="55.615234"/>
       <use xlink:href="#ArialMT-36" x="83.398438"/>
      </g>
     </g>
    </g>
    <g id="xtick_11">
     <g id="text_12">
      <!-- 0.8 -->
      <g style="fill: #262626" transform="translate(500.459091 237.413437) scale(0.1 -0.1)">
       <use xlink:href="#ArialMT-30"/>
       <use xlink:href="#ArialMT-2e" x="55.615234"/>
       <use xlink:href="#ArialMT-38" x="83.398438"/>
      </g>
     </g>
    </g>
    <g id="xtick_12">
     <g id="text_13">
      <!-- 1.0 -->
      <g style="fill: #262626" transform="translate(548.611818 237.413437) scale(0.1 -0.1)">
       <use xlink:href="#ArialMT-31"/>
       <use xlink:href="#ArialMT-2e" x="55.615234"/>
       <use xlink:href="#ArialMT-30" x="83.398438"/>
      </g>
     </g>
    </g>
   </g>
   <g id="matplotlib.axis_4">
    <g id="ytick_10"/>
    <g id="ytick_11"/>
    <g id="ytick_12"/>
    <g id="ytick_13"/>
    <g id="ytick_14"/>
    <g id="ytick_15"/>
    <g id="ytick_16"/>
    <g id="ytick_17"/>
    <g id="ytick_18"/>
   </g>
   <g id="PolyCollection_2">
    <defs>
     <path id="m853c323005" d="M 375.049342 -74.515455 
L 375.049342 -128.325882 
L 375.290347 -128.841168 
L 375.531351 -129.359289 
L 375.772356 -129.880233 
L 376.013361 -130.403985 
L 376.254365 -130.930533 
L 376.49537 -131.459862 
L 376.736375 -131.991958 
L 376.977379 -132.526805 
L 377.218384 -133.064389 
L 377.459388 -133.604692 
L 377.700393 -134.147699 
L 377.941398 -134.693393 
L 378.182402 -135.241756 
L 378.423407 -135.79277 
L 378.664412 -136.346418 
L 378.905416 -136.90268 
L 379.146421 -137.461537 
L 379.387426 -138.02297 
L 379.62843 -138.586958 
L 379.869435 -139.15348 
L 380.11044 -139.722516 
L 380.351444 -140.294043 
L 380.592449 -140.86804 
L 380.833453 -141.444484 
L 381.074458 -142.023353 
L 381.315463 -142.604621 
L 381.556467 -143.188266 
L 381.797472 -143.774263 
L 382.038477 -144.362588 
L 382.279481 -144.953213 
L 382.520486 -145.546114 
L 382.761491 -146.141265 
L 383.002495 -146.738637 
L 383.2435 -147.338205 
L 383.484505 -147.93994 
L 383.725509 -148.543813 
L 383.966514 -149.149796 
L 384.207518 -149.757859 
L 384.448523 -150.367974 
L 384.689528 -150.980109 
L 384.930532 -151.594233 
L 385.171537 -152.210316 
L 385.412542 -152.828326 
L 385.653546 -153.448231 
L 385.894551 -154.069998 
L 386.135556 -154.693593 
L 386.37656 -155.318984 
L 386.617565 -155.946136 
L 386.858569 -156.575015 
L 387.099574 -157.205586 
L 387.340579 -157.837813 
L 387.581583 -158.47166 
L 387.822588 -159.107092 
L 388.063593 -159.74407 
L 388.304597 -160.382558 
L 388.545602 -161.022519 
L 388.786607 -161.663913 
L 389.027611 -162.306703 
L 389.268616 -162.950849 
L 389.509621 -163.596312 
L 389.750625 -164.243051 
L 389.99163 -164.891027 
L 390.232634 -165.540198 
L 390.473639 -166.190523 
L 390.714644 -166.84196 
L 390.955648 -167.494468 
L 391.196653 -168.148003 
L 391.437658 -168.802523 
L 391.678662 -169.457985 
L 391.919667 -170.114344 
L 392.160672 -170.771556 
L 392.401676 -171.429577 
L 392.642681 -172.088362 
L 392.883686 -172.747865 
L 393.12469 -173.40804 
L 393.365695 -174.068842 
L 393.606699 -174.730224 
L 393.847704 -175.392138 
L 394.088709 -176.054538 
L 394.329713 -176.717375 
L 394.570718 -177.380603 
L 394.811723 -178.044171 
L 395.052727 -178.708033 
L 395.293732 -179.372137 
L 395.534737 -180.036436 
L 395.775741 -180.700879 
L 396.016746 -181.365416 
L 396.25775 -182.029997 
L 396.498755 -182.69457 
L 396.73976 -183.359086 
L 396.980764 -184.023492 
L 397.221769 -184.687737 
L 397.462774 -185.351769 
L 397.703778 -186.015535 
L 397.944783 -186.678983 
L 398.185788 -187.34206 
L 398.426792 -188.004714 
L 398.667797 -188.66689 
L 398.908802 -189.328535 
L 399.149806 -189.989596 
L 399.390811 -190.650017 
L 399.631815 -191.309746 
L 399.87282 -191.968726 
L 400.113825 -192.626904 
L 400.354829 -193.284224 
L 400.595834 -193.940631 
L 400.836839 -194.59607 
L 401.077843 -195.250485 
L 401.318848 -195.903821 
L 401.559853 -196.55602 
L 401.800857 -197.207028 
L 402.041862 -197.856787 
L 402.282867 -198.505242 
L 402.523871 -199.152335 
L 402.764876 -199.79801 
L 403.00588 -200.44221 
L 403.246885 -201.084879 
L 403.48789 -201.725958 
L 403.728894 -202.36539 
L 403.969899 -203.003119 
L 404.210904 -203.639087 
L 404.451908 -204.273235 
L 404.692913 -204.905508 
L 404.933918 -205.535847 
L 405.174922 -206.164194 
L 405.415927 -206.790491 
L 405.656931 -207.414681 
L 405.897936 -208.036706 
L 406.138941 -208.656509 
L 406.379945 -209.27403 
L 406.62095 -209.889213 
L 406.861955 -210.501999 
L 407.102959 -211.11233 
L 407.343964 -211.720149 
L 407.584969 -212.325399 
L 407.825973 -212.92802 
L 408.066978 -213.527956 
L 408.307983 -214.125148 
L 408.548987 -214.71954 
L 408.789992 -215.311073 
L 409.030996 -215.899691 
L 409.272001 -216.485335 
L 409.513006 -217.067949 
L 409.75401 -217.647475 
L 409.995015 -218.223857 
L 410.23602 -218.797038 
L 410.477024 -219.36696 
L 410.718029 -219.933568 
L 410.959034 -220.496805 
L 411.200038 -221.056614 
L 411.441043 -221.612939 
L 411.682048 -222.165726 
L 411.923052 -222.714917 
L 412.164057 -223.260458 
L 412.405061 -223.802293 
L 412.646066 -224.340367 
L 412.887071 -224.874626 
L 413.128075 -225.405014 
L 413.36908 -225.931478 
L 413.610085 -226.453963 
L 413.851089 -226.972415 
L 414.092094 -227.486782 
L 414.333099 -227.997009 
L 414.574103 -228.503045 
L 414.815108 -229.004835 
L 415.056112 -229.502329 
L 415.297117 -229.995474 
L 415.538122 -230.484218 
L 415.779126 -230.96851 
L 416.020131 -231.448299 
L 416.261136 -231.923534 
L 416.50214 -232.394166 
L 416.743145 -232.860144 
L 416.98415 -233.32142 
L 417.225154 -233.777943 
L 417.466159 -234.229665 
L 417.707164 -234.676539 
L 417.948168 -235.118515 
L 418.189173 -235.555548 
L 418.430177 -235.987589 
L 418.671182 -236.414593 
L 418.912187 -236.836513 
L 419.153191 -237.253303 
L 419.394196 -237.664919 
L 419.635201 -238.071317 
L 419.876205 -238.47245 
L 420.11721 -238.868278 
L 420.358215 -239.258755 
L 420.599219 -239.643839 
L 420.840224 -240.023489 
L 421.081229 -240.397662 
L 421.322233 -240.766318 
L 421.563238 -241.129416 
L 421.804242 -241.486916 
L 422.045247 -241.838779 
L 422.286252 -242.184966 
L 422.527256 -242.525438 
L 422.768261 -242.860158 
L 423.009266 -243.189089 
L 423.25027 -243.512195 
L 423.491275 -243.829438 
L 423.73228 -244.140785 
L 423.973284 -244.4462 
L 424.214289 -244.745649 
L 424.455293 -245.0391 
L 424.696298 -245.326518 
L 424.937303 -245.607872 
L 425.178307 -245.88313 
L 425.419312 -246.152262 
L 425.660317 -246.415237 
L 425.901321 -246.672025 
L 426.142326 -246.922598 
L 426.383331 -247.166928 
L 426.624335 -247.404986 
L 426.86534 -247.636746 
L 427.106345 -247.862182 
L 427.347349 -248.081268 
L 427.588354 -248.29398 
L 427.829358 -248.500293 
L 428.070363 -248.700184 
L 428.311368 -248.893631 
L 428.552372 -249.08061 
L 428.793377 -249.261102 
L 429.034382 -249.435085 
L 429.275386 -249.60254 
L 429.516391 -249.763447 
L 429.757396 -249.917789 
L 429.9984 -250.065547 
L 430.239405 -250.206705 
L 430.48041 -250.341247 
L 430.721414 -250.469158 
L 430.962419 -250.590422 
L 431.203423 -250.705025 
L 431.444428 -250.812956 
L 431.685433 -250.914201 
L 431.926437 -251.008749 
L 432.167442 -251.096588 
L 432.408447 -251.17771 
L 432.649451 -251.252104 
L 432.890456 -251.319762 
L 433.131461 -251.380677 
L 433.372465 -251.434841 
L 433.61347 -251.482248 
L 433.854474 -251.522893 
L 434.095479 -251.556771 
L 434.336484 -251.583877 
L 434.577488 -251.60421 
L 434.818493 -251.617767 
L 435.059498 -251.624545 
L 435.300502 -251.624545 
L 435.541507 -251.617767 
L 435.782512 -251.60421 
L 436.023516 -251.583877 
L 436.264521 -251.556771 
L 436.505526 -251.522893 
L 436.74653 -251.482248 
L 436.987535 -251.434841 
L 437.228539 -251.380677 
L 437.469544 -251.319762 
L 437.710549 -251.252104 
L 437.951553 -251.17771 
L 438.192558 -251.096588 
L 438.433563 -251.008749 
L 438.674567 -250.914201 
L 438.915572 -250.812956 
L 439.156577 -250.705025 
L 439.397581 -250.590422 
L 439.638586 -250.469158 
L 439.87959 -250.341247 
L 440.120595 -250.206705 
L 440.3616 -250.065547 
L 440.602604 -249.917789 
L 440.843609 -249.763447 
L 441.084614 -249.60254 
L 441.325618 -249.435085 
L 441.566623 -249.261102 
L 441.807628 -249.08061 
L 442.048632 -248.893631 
L 442.289637 -248.700184 
L 442.530642 -248.500293 
L 442.771646 -248.29398 
L 443.012651 -248.081268 
L 443.253655 -247.862182 
L 443.49466 -247.636746 
L 443.735665 -247.404986 
L 443.976669 -247.166928 
L 444.217674 -246.922598 
L 444.458679 -246.672025 
L 444.699683 -246.415237 
L 444.940688 -246.152262 
L 445.181693 -245.88313 
L 445.422697 -245.607872 
L 445.663702 -245.326518 
L 445.904707 -245.0391 
L 446.145711 -244.745649 
L 446.386716 -244.4462 
L 446.62772 -244.140785 
L 446.868725 -243.829438 
L 447.10973 -243.512195 
L 447.350734 -243.189089 
L 447.591739 -242.860158 
L 447.832744 -242.525438 
L 448.073748 -242.184966 
L 448.314753 -241.838779 
L 448.555758 -241.486916 
L 448.796762 -241.129416 
L 449.037767 -240.766318 
L 449.278771 -240.397662 
L 449.519776 -240.023489 
L 449.760781 -239.643839 
L 450.001785 -239.258755 
L 450.24279 -238.868278 
L 450.483795 -238.47245 
L 450.724799 -238.071317 
L 450.965804 -237.664919 
L 451.206809 -237.253303 
L 451.447813 -236.836513 
L 451.688818 -236.414593 
L 451.929823 -235.987589 
L 452.170827 -235.555548 
L 452.411832 -235.118515 
L 452.652836 -234.676539 
L 452.893841 -234.229665 
L 453.134846 -233.777943 
L 453.37585 -233.32142 
L 453.616855 -232.860144 
L 453.85786 -232.394166 
L 454.098864 -231.923534 
L 454.339869 -231.448299 
L 454.580874 -230.96851 
L 454.821878 -230.484218 
L 455.062883 -229.995474 
L 455.303888 -229.502329 
L 455.544892 -229.004835 
L 455.785897 -228.503045 
L 456.026901 -227.997009 
L 456.267906 -227.486782 
L 456.508911 -226.972415 
L 456.749915 -226.453963 
L 456.99092 -225.931478 
L 457.231925 -225.405014 
L 457.472929 -224.874626 
L 457.713934 -224.340367 
L 457.954939 -223.802293 
L 458.195943 -223.260458 
L 458.436948 -222.714917 
L 458.677952 -222.165726 
L 458.918957 -221.612939 
L 459.159962 -221.056614 
L 459.400966 -220.496805 
L 459.641971 -219.933568 
L 459.882976 -219.36696 
L 460.12398 -218.797038 
L 460.364985 -218.223857 
L 460.60599 -217.647475 
L 460.846994 -217.067949 
L 461.087999 -216.485335 
L 461.329004 -215.899691 
L 461.570008 -215.311073 
L 461.811013 -214.71954 
L 462.052017 -214.125148 
L 462.293022 -213.527956 
L 462.534027 -212.92802 
L 462.775031 -212.325399 
L 463.016036 -211.720149 
L 463.257041 -211.11233 
L 463.498045 -210.501999 
L 463.73905 -209.889213 
L 463.980055 -209.27403 
L 464.221059 -208.656509 
L 464.462064 -208.036706 
L 464.703069 -207.414681 
L 464.944073 -206.790491 
L 465.185078 -206.164194 
L 465.426082 -205.535847 
L 465.667087 -204.905508 
L 465.908092 -204.273235 
L 466.149096 -203.639087 
L 466.390101 -203.003119 
L 466.631106 -202.36539 
L 466.87211 -201.725958 
L 467.113115 -201.084879 
L 467.35412 -200.44221 
L 467.595124 -199.79801 
L 467.836129 -199.152335 
L 468.077133 -198.505242 
L 468.318138 -197.856787 
L 468.559143 -197.207028 
L 468.800147 -196.55602 
L 469.041152 -195.903821 
L 469.282157 -195.250485 
L 469.523161 -194.59607 
L 469.764166 -193.940631 
L 470.005171 -193.284224 
L 470.246175 -192.626904 
L 470.48718 -191.968726 
L 470.728185 -191.309746 
L 470.969189 -190.650017 
L 471.210194 -189.989596 
L 471.451198 -189.328535 
L 471.692203 -188.66689 
L 471.933208 -188.004714 
L 472.174212 -187.34206 
L 472.415217 -186.678983 
L 472.656222 -186.015535 
L 472.897226 -185.351769 
L 473.138231 -184.687737 
L 473.379236 -184.023492 
L 473.62024 -183.359086 
L 473.861245 -182.69457 
L 474.10225 -182.029997 
L 474.343254 -181.365416 
L 474.584259 -180.700879 
L 474.825263 -180.036436 
L 475.066268 -179.372137 
L 475.307273 -178.708033 
L 475.548277 -178.044171 
L 475.789282 -177.380603 
L 476.030287 -176.717375 
L 476.271291 -176.054538 
L 476.512296 -175.392138 
L 476.753301 -174.730224 
L 476.994305 -174.068842 
L 477.23531 -173.40804 
L 477.476314 -172.747865 
L 477.717319 -172.088362 
L 477.958324 -171.429577 
L 478.199328 -170.771556 
L 478.440333 -170.114344 
L 478.681338 -169.457985 
L 478.922342 -168.802523 
L 479.163347 -168.148003 
L 479.404352 -167.494468 
L 479.645356 -166.84196 
L 479.886361 -166.190523 
L 480.127366 -165.540198 
L 480.36837 -164.891027 
L 480.609375 -164.243051 
L 480.850379 -163.596312 
L 481.091384 -162.950849 
L 481.332389 -162.306703 
L 481.573393 -161.663913 
L 481.814398 -161.022519 
L 482.055403 -160.382558 
L 482.296407 -159.74407 
L 482.537412 -159.107092 
L 482.778417 -158.47166 
L 483.019421 -157.837813 
L 483.260426 -157.205586 
L 483.501431 -156.575015 
L 483.742435 -155.946136 
L 483.98344 -155.318984 
L 484.224444 -154.693593 
L 484.465449 -154.069998 
L 484.706454 -153.448231 
L 484.947458 -152.828326 
L 485.188463 -152.210316 
L 485.429468 -151.594233 
L 485.670472 -150.980109 
L 485.911477 -150.367974 
L 486.152482 -149.757859 
L 486.393486 -149.149796 
L 486.634491 -148.543813 
L 486.875495 -147.93994 
L 487.1165 -147.338205 
L 487.357505 -146.738637 
L 487.598509 -146.141265 
L 487.839514 -145.546114 
L 488.080519 -144.953213 
L 488.321523 -144.362588 
L 488.562528 -143.774263 
L 488.803533 -143.188266 
L 489.044537 -142.604621 
L 489.285542 -142.023353 
L 489.526547 -141.444484 
L 489.767551 -140.86804 
L 490.008556 -140.294043 
L 490.24956 -139.722516 
L 490.490565 -139.15348 
L 490.73157 -138.586958 
L 490.972574 -138.02297 
L 491.213579 -137.461537 
L 491.454584 -136.90268 
L 491.695588 -136.346418 
L 491.936593 -135.79277 
L 492.177598 -135.241756 
L 492.418602 -134.693393 
L 492.659607 -134.147699 
L 492.900612 -133.604692 
L 493.141616 -133.064389 
L 493.382621 -132.526805 
L 493.623625 -131.991958 
L 493.86463 -131.459862 
L 494.105635 -130.930533 
L 494.346639 -130.403985 
L 494.587644 -129.880233 
L 494.828649 -129.359289 
L 495.069653 -128.841168 
L 495.310658 -128.325882 
L 495.310658 -74.515455 
L 495.310658 -74.515455 
L 495.069653 -74.515455 
L 494.828649 -74.515455 
L 494.587644 -74.515455 
L 494.346639 -74.515455 
L 494.105635 -74.515455 
L 493.86463 -74.515455 
L 493.623625 -74.515455 
L 493.382621 -74.515455 
L 493.141616 -74.515455 
L 492.900612 -74.515455 
L 492.659607 -74.515455 
L 492.418602 -74.515455 
L 492.177598 -74.515455 
L 491.936593 -74.515455 
L 491.695588 -74.515455 
L 491.454584 -74.515455 
L 491.213579 -74.515455 
L 490.972574 -74.515455 
L 490.73157 -74.515455 
L 490.490565 -74.515455 
L 490.24956 -74.515455 
L 490.008556 -74.515455 
L 489.767551 -74.515455 
L 489.526547 -74.515455 
L 489.285542 -74.515455 
L 489.044537 -74.515455 
L 488.803533 -74.515455 
L 488.562528 -74.515455 
L 488.321523 -74.515455 
L 488.080519 -74.515455 
L 487.839514 -74.515455 
L 487.598509 -74.515455 
L 487.357505 -74.515455 
L 487.1165 -74.515455 
L 486.875495 -74.515455 
L 486.634491 -74.515455 
L 486.393486 -74.515455 
L 486.152482 -74.515455 
L 485.911477 -74.515455 
L 485.670472 -74.515455 
L 485.429468 -74.515455 
L 485.188463 -74.515455 
L 484.947458 -74.515455 
L 484.706454 -74.515455 
L 484.465449 -74.515455 
L 484.224444 -74.515455 
L 483.98344 -74.515455 
L 483.742435 -74.515455 
L 483.501431 -74.515455 
L 483.260426 -74.515455 
L 483.019421 -74.515455 
L 482.778417 -74.515455 
L 482.537412 -74.515455 
L 482.296407 -74.515455 
L 482.055403 -74.515455 
L 481.814398 -74.515455 
L 481.573393 -74.515455 
L 481.332389 -74.515455 
L 481.091384 -74.515455 
L 480.850379 -74.515455 
L 480.609375 -74.515455 
L 480.36837 -74.515455 
L 480.127366 -74.515455 
L 479.886361 -74.515455 
L 479.645356 -74.515455 
L 479.404352 -74.515455 
L 479.163347 -74.515455 
L 478.922342 -74.515455 
L 478.681338 -74.515455 
L 478.440333 -74.515455 
L 478.199328 -74.515455 
L 477.958324 -74.515455 
L 477.717319 -74.515455 
L 477.476314 -74.515455 
L 477.23531 -74.515455 
L 476.994305 -74.515455 
L 476.753301 -74.515455 
L 476.512296 -74.515455 
L 476.271291 -74.515455 
L 476.030287 -74.515455 
L 475.789282 -74.515455 
L 475.548277 -74.515455 
L 475.307273 -74.515455 
L 475.066268 -74.515455 
L 474.825263 -74.515455 
L 474.584259 -74.515455 
L 474.343254 -74.515455 
L 474.10225 -74.515455 
L 473.861245 -74.515455 
L 473.62024 -74.515455 
L 473.379236 -74.515455 
L 473.138231 -74.515455 
L 472.897226 -74.515455 
L 472.656222 -74.515455 
L 472.415217 -74.515455 
L 472.174212 -74.515455 
L 471.933208 -74.515455 
L 471.692203 -74.515455 
L 471.451198 -74.515455 
L 471.210194 -74.515455 
L 470.969189 -74.515455 
L 470.728185 -74.515455 
L 470.48718 -74.515455 
L 470.246175 -74.515455 
L 470.005171 -74.515455 
L 469.764166 -74.515455 
L 469.523161 -74.515455 
L 469.282157 -74.515455 
L 469.041152 -74.515455 
L 468.800147 -74.515455 
L 468.559143 -74.515455 
L 468.318138 -74.515455 
L 468.077133 -74.515455 
L 467.836129 -74.515455 
L 467.595124 -74.515455 
L 467.35412 -74.515455 
L 467.113115 -74.515455 
L 466.87211 -74.515455 
L 466.631106 -74.515455 
L 466.390101 -74.515455 
L 466.149096 -74.515455 
L 465.908092 -74.515455 
L 465.667087 -74.515455 
L 465.426082 -74.515455 
L 465.185078 -74.515455 
L 464.944073 -74.515455 
L 464.703069 -74.515455 
L 464.462064 -74.515455 
L 464.221059 -74.515455 
L 463.980055 -74.515455 
L 463.73905 -74.515455 
L 463.498045 -74.515455 
L 463.257041 -74.515455 
L 463.016036 -74.515455 
L 462.775031 -74.515455 
L 462.534027 -74.515455 
L 462.293022 -74.515455 
L 462.052017 -74.515455 
L 461.811013 -74.515455 
L 461.570008 -74.515455 
L 461.329004 -74.515455 
L 461.087999 -74.515455 
L 460.846994 -74.515455 
L 460.60599 -74.515455 
L 460.364985 -74.515455 
L 460.12398 -74.515455 
L 459.882976 -74.515455 
L 459.641971 -74.515455 
L 459.400966 -74.515455 
L 459.159962 -74.515455 
L 458.918957 -74.515455 
L 458.677952 -74.515455 
L 458.436948 -74.515455 
L 458.195943 -74.515455 
L 457.954939 -74.515455 
L 457.713934 -74.515455 
L 457.472929 -74.515455 
L 457.231925 -74.515455 
L 456.99092 -74.515455 
L 456.749915 -74.515455 
L 456.508911 -74.515455 
L 456.267906 -74.515455 
L 456.026901 -74.515455 
L 455.785897 -74.515455 
L 455.544892 -74.515455 
L 455.303888 -74.515455 
L 455.062883 -74.515455 
L 454.821878 -74.515455 
L 454.580874 -74.515455 
L 454.339869 -74.515455 
L 454.098864 -74.515455 
L 453.85786 -74.515455 
L 453.616855 -74.515455 
L 453.37585 -74.515455 
L 453.134846 -74.515455 
L 452.893841 -74.515455 
L 452.652836 -74.515455 
L 452.411832 -74.515455 
L 452.170827 -74.515455 
L 451.929823 -74.515455 
L 451.688818 -74.515455 
L 451.447813 -74.515455 
L 451.206809 -74.515455 
L 450.965804 -74.515455 
L 450.724799 -74.515455 
L 450.483795 -74.515455 
L 450.24279 -74.515455 
L 450.001785 -74.515455 
L 449.760781 -74.515455 
L 449.519776 -74.515455 
L 449.278771 -74.515455 
L 449.037767 -74.515455 
L 448.796762 -74.515455 
L 448.555758 -74.515455 
L 448.314753 -74.515455 
L 448.073748 -74.515455 
L 447.832744 -74.515455 
L 447.591739 -74.515455 
L 447.350734 -74.515455 
L 447.10973 -74.515455 
L 446.868725 -74.515455 
L 446.62772 -74.515455 
L 446.386716 -74.515455 
L 446.145711 -74.515455 
L 445.904707 -74.515455 
L 445.663702 -74.515455 
L 445.422697 -74.515455 
L 445.181693 -74.515455 
L 444.940688 -74.515455 
L 444.699683 -74.515455 
L 444.458679 -74.515455 
L 444.217674 -74.515455 
L 443.976669 -74.515455 
L 443.735665 -74.515455 
L 443.49466 -74.515455 
L 443.253655 -74.515455 
L 443.012651 -74.515455 
L 442.771646 -74.515455 
L 442.530642 -74.515455 
L 442.289637 -74.515455 
L 442.048632 -74.515455 
L 441.807628 -74.515455 
L 441.566623 -74.515455 
L 441.325618 -74.515455 
L 441.084614 -74.515455 
L 440.843609 -74.515455 
L 440.602604 -74.515455 
L 440.3616 -74.515455 
L 440.120595 -74.515455 
L 439.87959 -74.515455 
L 439.638586 -74.515455 
L 439.397581 -74.515455 
L 439.156577 -74.515455 
L 438.915572 -74.515455 
L 438.674567 -74.515455 
L 438.433563 -74.515455 
L 438.192558 -74.515455 
L 437.951553 -74.515455 
L 437.710549 -74.515455 
L 437.469544 -74.515455 
L 437.228539 -74.515455 
L 436.987535 -74.515455 
L 436.74653 -74.515455 
L 436.505526 -74.515455 
L 436.264521 -74.515455 
L 436.023516 -74.515455 
L 435.782512 -74.515455 
L 435.541507 -74.515455 
L 435.300502 -74.515455 
L 435.059498 -74.515455 
L 434.818493 -74.515455 
L 434.577488 -74.515455 
L 434.336484 -74.515455 
L 434.095479 -74.515455 
L 433.854474 -74.515455 
L 433.61347 -74.515455 
L 433.372465 -74.515455 
L 433.131461 -74.515455 
L 432.890456 -74.515455 
L 432.649451 -74.515455 
L 432.408447 -74.515455 
L 432.167442 -74.515455 
L 431.926437 -74.515455 
L 431.685433 -74.515455 
L 431.444428 -74.515455 
L 431.203423 -74.515455 
L 430.962419 -74.515455 
L 430.721414 -74.515455 
L 430.48041 -74.515455 
L 430.239405 -74.515455 
L 429.9984 -74.515455 
L 429.757396 -74.515455 
L 429.516391 -74.515455 
L 429.275386 -74.515455 
L 429.034382 -74.515455 
L 428.793377 -74.515455 
L 428.552372 -74.515455 
L 428.311368 -74.515455 
L 428.070363 -74.515455 
L 427.829358 -74.515455 
L 427.588354 -74.515455 
L 427.347349 -74.515455 
L 427.106345 -74.515455 
L 426.86534 -74.515455 
L 426.624335 -74.515455 
L 426.383331 -74.515455 
L 426.142326 -74.515455 
L 425.901321 -74.515455 
L 425.660317 -74.515455 
L 425.419312 -74.515455 
L 425.178307 -74.515455 
L 424.937303 -74.515455 
L 424.696298 -74.515455 
L 424.455293 -74.515455 
L 424.214289 -74.515455 
L 423.973284 -74.515455 
L 423.73228 -74.515455 
L 423.491275 -74.515455 
L 423.25027 -74.515455 
L 423.009266 -74.515455 
L 422.768261 -74.515455 
L 422.527256 -74.515455 
L 422.286252 -74.515455 
L 422.045247 -74.515455 
L 421.804242 -74.515455 
L 421.563238 -74.515455 
L 421.322233 -74.515455 
L 421.081229 -74.515455 
L 420.840224 -74.515455 
L 420.599219 -74.515455 
L 420.358215 -74.515455 
L 420.11721 -74.515455 
L 419.876205 -74.515455 
L 419.635201 -74.515455 
L 419.394196 -74.515455 
L 419.153191 -74.515455 
L 418.912187 -74.515455 
L 418.671182 -74.515455 
L 418.430177 -74.515455 
L 418.189173 -74.515455 
L 417.948168 -74.515455 
L 417.707164 -74.515455 
L 417.466159 -74.515455 
L 417.225154 -74.515455 
L 416.98415 -74.515455 
L 416.743145 -74.515455 
L 416.50214 -74.515455 
L 416.261136 -74.515455 
L 416.020131 -74.515455 
L 415.779126 -74.515455 
L 415.538122 -74.515455 
L 415.297117 -74.515455 
L 415.056112 -74.515455 
L 414.815108 -74.515455 
L 414.574103 -74.515455 
L 414.333099 -74.515455 
L 414.092094 -74.515455 
L 413.851089 -74.515455 
L 413.610085 -74.515455 
L 413.36908 -74.515455 
L 413.128075 -74.515455 
L 412.887071 -74.515455 
L 412.646066 -74.515455 
L 412.405061 -74.515455 
L 412.164057 -74.515455 
L 411.923052 -74.515455 
L 411.682048 -74.515455 
L 411.441043 -74.515455 
L 411.200038 -74.515455 
L 410.959034 -74.515455 
L 410.718029 -74.515455 
L 410.477024 -74.515455 
L 410.23602 -74.515455 
L 409.995015 -74.515455 
L 409.75401 -74.515455 
L 409.513006 -74.515455 
L 409.272001 -74.515455 
L 409.030996 -74.515455 
L 408.789992 -74.515455 
L 408.548987 -74.515455 
L 408.307983 -74.515455 
L 408.066978 -74.515455 
L 407.825973 -74.515455 
L 407.584969 -74.515455 
L 407.343964 -74.515455 
L 407.102959 -74.515455 
L 406.861955 -74.515455 
L 406.62095 -74.515455 
L 406.379945 -74.515455 
L 406.138941 -74.515455 
L 405.897936 -74.515455 
L 405.656931 -74.515455 
L 405.415927 -74.515455 
L 405.174922 -74.515455 
L 404.933918 -74.515455 
L 404.692913 -74.515455 
L 404.451908 -74.515455 
L 404.210904 -74.515455 
L 403.969899 -74.515455 
L 403.728894 -74.515455 
L 403.48789 -74.515455 
L 403.246885 -74.515455 
L 403.00588 -74.515455 
L 402.764876 -74.515455 
L 402.523871 -74.515455 
L 402.282867 -74.515455 
L 402.041862 -74.515455 
L 401.800857 -74.515455 
L 401.559853 -74.515455 
L 401.318848 -74.515455 
L 401.077843 -74.515455 
L 400.836839 -74.515455 
L 400.595834 -74.515455 
L 400.354829 -74.515455 
L 400.113825 -74.515455 
L 399.87282 -74.515455 
L 399.631815 -74.515455 
L 399.390811 -74.515455 
L 399.149806 -74.515455 
L 398.908802 -74.515455 
L 398.667797 -74.515455 
L 398.426792 -74.515455 
L 398.185788 -74.515455 
L 397.944783 -74.515455 
L 397.703778 -74.515455 
L 397.462774 -74.515455 
L 397.221769 -74.515455 
L 396.980764 -74.515455 
L 396.73976 -74.515455 
L 396.498755 -74.515455 
L 396.25775 -74.515455 
L 396.016746 -74.515455 
L 395.775741 -74.515455 
L 395.534737 -74.515455 
L 395.293732 -74.515455 
L 395.052727 -74.515455 
L 394.811723 -74.515455 
L 394.570718 -74.515455 
L 394.329713 -74.515455 
L 394.088709 -74.515455 
L 393.847704 -74.515455 
L 393.606699 -74.515455 
L 393.365695 -74.515455 
L 393.12469 -74.515455 
L 392.883686 -74.515455 
L 392.642681 -74.515455 
L 392.401676 -74.515455 
L 392.160672 -74.515455 
L 391.919667 -74.515455 
L 391.678662 -74.515455 
L 391.437658 -74.515455 
L 391.196653 -74.515455 
L 390.955648 -74.515455 
L 390.714644 -74.515455 
L 390.473639 -74.515455 
L 390.232634 -74.515455 
L 389.99163 -74.515455 
L 389.750625 -74.515455 
L 389.509621 -74.515455 
L 389.268616 -74.515455 
L 389.027611 -74.515455 
L 388.786607 -74.515455 
L 388.545602 -74.515455 
L 388.304597 -74.515455 
L 388.063593 -74.515455 
L 387.822588 -74.515455 
L 387.581583 -74.515455 
L 387.340579 -74.515455 
L 387.099574 -74.515455 
L 386.858569 -74.515455 
L 386.617565 -74.515455 
L 386.37656 -74.515455 
L 386.135556 -74.515455 
L 385.894551 -74.515455 
L 385.653546 -74.515455 
L 385.412542 -74.515455 
L 385.171537 -74.515455 
L 384.930532 -74.515455 
L 384.689528 -74.515455 
L 384.448523 -74.515455 
L 384.207518 -74.515455 
L 383.966514 -74.515455 
L 383.725509 -74.515455 
L 383.484505 -74.515455 
L 383.2435 -74.515455 
L 383.002495 -74.515455 
L 382.761491 -74.515455 
L 382.520486 -74.515455 
L 382.279481 -74.515455 
L 382.038477 -74.515455 
L 381.797472 -74.515455 
L 381.556467 -74.515455 
L 381.315463 -74.515455 
L 381.074458 -74.515455 
L 380.833453 -74.515455 
L 380.592449 -74.515455 
L 380.351444 -74.515455 
L 380.11044 -74.515455 
L 379.869435 -74.515455 
L 379.62843 -74.515455 
L 379.387426 -74.515455 
L 379.146421 -74.515455 
L 378.905416 -74.515455 
L 378.664412 -74.515455 
L 378.423407 -74.515455 
L 378.182402 -74.515455 
L 377.941398 -74.515455 
L 377.700393 -74.515455 
L 377.459388 -74.515455 
L 377.218384 -74.515455 
L 376.977379 -74.515455 
L 376.736375 -74.515455 
L 376.49537 -74.515455 
L 376.254365 -74.515455 
L 376.013361 -74.515455 
L 375.772356 -74.515455 
L 375.531351 -74.515455 
L 375.290347 -74.515455 
L 375.049342 -74.515455 
z
" style="stroke: #808080; stroke-opacity: 0.5"/>
    </defs>
    <g clip-path="url(#pac8d7b4ba2)">
     <use xlink:href="#m853c323005" x="0" y="286.415625" style="fill: #808080; fill-opacity: 0.5; stroke: #808080; stroke-opacity: 0.5"/>
    </g>
   </g>
   <g id="line2d_2">
    <path d="M 314.798182 210.405355 
L 319.618275 209.72586 
L 323.956358 208.893421 
L 327.812432 207.930907 
L 331.427502 206.796066 
L 334.801567 205.495833 
L 337.934627 204.046513 
L 340.826683 202.473438 
L 343.718739 200.647471 
L 346.610794 198.541642 
L 349.261845 196.34233 
L 351.912897 193.86465 
L 354.563948 191.08899 
L 357.214999 187.997114 
L 359.86605 184.572737 
L 362.517101 180.802137 
L 365.409156 176.281623 
L 368.301212 171.328223 
L 371.193268 165.939975 
L 374.326328 159.618468 
L 377.700393 152.267926 
L 381.315463 143.811004 
L 385.171537 134.205309 
L 389.750625 122.172574 
L 396.498755 103.721055 
L 404.210904 82.776538 
L 408.307983 72.290477 
L 411.682048 64.249899 
L 414.574103 57.91258 
L 417.225154 52.637682 
L 419.635201 48.344308 
L 421.804242 44.928709 
L 423.73228 42.27484 
L 425.660317 40.000388 
L 427.347349 38.334357 
L 429.034382 36.98054 
L 430.48041 36.074378 
L 431.926437 35.406876 
L 433.372465 34.980784 
L 434.818493 34.797858 
L 436.264521 34.858854 
L 437.710549 35.163521 
L 439.156577 35.7106 
L 440.602604 36.497836 
L 442.048632 37.521994 
L 443.735665 39.010639 
L 445.422697 40.807753 
L 447.350734 43.226536 
L 449.278771 46.017963 
L 451.447813 49.579112 
L 453.85786 54.021459 
L 456.267906 58.928843 
L 459.159962 65.359011 
L 462.293022 72.887669 
L 466.149096 82.776538 
L 471.210194 96.426029 
L 483.501431 129.84061 
L 487.839514 140.869511 
L 491.695588 150.069207 
L 495.069653 157.574457 
L 498.202714 164.047966 
L 501.335774 170.02185 
L 504.22783 175.08405 
L 507.119885 179.712233 
L 510.011941 183.91328 
L 512.903997 187.699773 
L 515.555048 190.821238 
L 518.206099 193.624916 
L 520.85715 196.128891 
L 523.508201 198.352673 
L 526.400257 200.483049 
L 529.292312 202.331303 
L 532.184368 203.924433 
L 535.317428 205.393045 
L 538.691493 206.711367 
L 542.065558 207.793524 
L 545.921633 208.78554 
L 550.018711 209.603185 
L 554.5978 210.287052 
L 555.561818 210.405355 
L 555.561818 210.405355 
" clip-path="url(#pac8d7b4ba2)" style="fill: none; stroke: #000000; stroke-linecap: round"/>
   </g>
   <g id="patch_6">
    <path d="M 302.76 220.755625 
L 302.76 25.935625 
" style="fill: none; stroke: #cccccc; stroke-width: 1.25; stroke-linejoin: miter; stroke-linecap: square"/>
   </g>
   <g id="patch_7">
    <path d="M 302.76 220.755625 
L 567.6 220.755625 
" style="fill: none; stroke: #cccccc; stroke-width: 1.25; stroke-linejoin: miter; stroke-linecap: square"/>
   </g>
   <g id="text_14">
    <!-- (b) -->
    <g style="fill: #262626" transform="translate(302.76 15.935625) scale(0.12 -0.12)">
     <defs>
      <path id="ArialMT-62" d="M 941 0 
L 419 0 
L 419 4581 
L 981 4581 
L 981 2947 
Q 1338 3394 1891 3394 
Q 2197 3394 2470 3270 
Q 2744 3147 2920 2923 
Q 3097 2700 3197 2384 
Q 3297 2069 3297 1709 
Q 3297 856 2875 390 
Q 2453 -75 1863 -75 
Q 1275 -75 941 416 
L 941 0 
z
M 934 1684 
Q 934 1088 1097 822 
Q 1363 388 1816 388 
Q 2184 388 2453 708 
Q 2722 1028 2722 1663 
Q 2722 2313 2464 2622 
Q 2206 2931 1841 2931 
Q 1472 2931 1203 2611 
Q 934 2291 934 1684 
z
" transform="scale(0.015625)"/>
     </defs>
     <use xlink:href="#ArialMT-28"/>
     <use xlink:href="#ArialMT-62" x="33.300781"/>
     <use xlink:href="#ArialMT-29" x="88.916016"/>
    </g>
   </g>
  </g>
  <g id="axes_3">
   <g id="patch_8">
    <path d="M 580.56 220.755625 
L 845.4 220.755625 
L 845.4 25.935625 
L 580.56 25.935625 
z
" style="fill: #ffffff"/>
   </g>
   <g id="matplotlib.axis_5">
    <g id="xtick_13">
     <g id="text_15">
      <!-- 0.0 -->
      <g style="fill: #262626" transform="translate(585.648182 237.413437) scale(0.1 -0.1)">
       <use xlink:href="#ArialMT-30"/>
       <use xlink:href="#ArialMT-2e" x="55.615234"/>
       <use xlink:href="#ArialMT-30" x="83.398438"/>
      </g>
     </g>
    </g>
    <g id="xtick_14">
     <g id="text_16">
      <!-- 0.2 -->
      <g style="fill: #262626" transform="translate(633.800909 237.413437) scale(0.1 -0.1)">
       <use xlink:href="#ArialMT-30"/>
       <use xlink:href="#ArialMT-2e" x="55.615234"/>
       <use xlink:href="#ArialMT-32" x="83.398438"/>
      </g>
     </g>
    </g>
    <g id="xtick_15">
     <g id="text_17">
      <!-- 0.4 -->
      <g style="fill: #262626" transform="translate(681.953636 237.413437) scale(0.1 -0.1)">
       <use xlink:href="#ArialMT-30"/>
       <use xlink:href="#ArialMT-2e" x="55.615234"/>
       <use xlink:href="#ArialMT-34" x="83.398438"/>
      </g>
     </g>
    </g>
    <g id="xtick_16">
     <g id="text_18">
      <!-- 0.6 -->
      <g style="fill: #262626" transform="translate(730.106364 237.413437) scale(0.1 -0.1)">
       <use xlink:href="#ArialMT-30"/>
       <use xlink:href="#ArialMT-2e" x="55.615234"/>
       <use xlink:href="#ArialMT-36" x="83.398438"/>
      </g>
     </g>
    </g>
    <g id="xtick_17">
     <g id="text_19">
      <!-- 0.8 -->
      <g style="fill: #262626" transform="translate(778.259091 237.413437) scale(0.1 -0.1)">
       <use xlink:href="#ArialMT-30"/>
       <use xlink:href="#ArialMT-2e" x="55.615234"/>
       <use xlink:href="#ArialMT-38" x="83.398438"/>
      </g>
     </g>
    </g>
    <g id="xtick_18">
     <g id="text_20">
      <!-- 1.0 -->
      <g style="fill: #262626" transform="translate(826.411818 237.413437) scale(0.1 -0.1)">
       <use xlink:href="#ArialMT-31"/>
       <use xlink:href="#ArialMT-2e" x="55.615234"/>
       <use xlink:href="#ArialMT-30" x="83.398438"/>
      </g>
     </g>
    </g>
   </g>
   <g id="matplotlib.axis_6">
    <g id="ytick_19"/>
    <g id="ytick_20"/>
    <g id="ytick_21"/>
    <g id="ytick_22"/>
    <g id="ytick_23"/>
    <g id="ytick_24"/>
    <g id="ytick_25"/>
    <g id="ytick_26"/>
    <g id="ytick_27"/>
   </g>
   <g id="PolyCollection_3">
    <defs>
     <path id="m73ee8c8574" d="M 604.648414 -74.515455 
L 604.648414 -198.151733 
L 604.889419 -197.242647 
L 605.130423 -196.339296 
L 605.371428 -195.44165 
L 605.612432 -194.54968 
L 605.853437 -193.663356 
L 606.094442 -192.782647 
L 606.335446 -191.907523 
L 606.576451 -191.037956 
L 606.817456 -190.173916 
L 607.05846 -189.315374 
L 607.299465 -188.4623 
L 607.54047 -187.614665 
L 607.781474 -186.77244 
L 608.022479 -185.935598 
L 608.263483 -185.104108 
L 608.504488 -184.277942 
L 608.745493 -183.457073 
L 608.986497 -182.641471 
L 609.227502 -181.831108 
L 609.468507 -181.025957 
L 609.709511 -180.225989 
L 609.950516 -179.431177 
L 610.191521 -178.641492 
L 610.432525 -177.856908 
L 610.67353 -177.077396 
L 610.914535 -176.30293 
L 611.155539 -175.533482 
L 611.396544 -174.769025 
L 611.637548 -174.009532 
L 611.878553 -173.254976 
L 612.119558 -172.50533 
L 612.360562 -171.760568 
L 612.601567 -171.020663 
L 612.842572 -170.285588 
L 613.083576 -169.555319 
L 613.324581 -168.829827 
L 613.565586 -168.109087 
L 613.80659 -167.393074 
L 614.047595 -166.681761 
L 614.2886 -165.975122 
L 614.529604 -165.273133 
L 614.770609 -164.575766 
L 615.011613 -163.882998 
L 615.252618 -163.194802 
L 615.493623 -162.511154 
L 615.734627 -161.832029 
L 615.975632 -161.157401 
L 616.216637 -160.487245 
L 616.457641 -159.821538 
L 616.698646 -159.160254 
L 616.939651 -158.503368 
L 617.180655 -157.850857 
L 617.42166 -157.202696 
L 617.662664 -156.558861 
L 617.903669 -155.919328 
L 618.144674 -155.284072 
L 618.385678 -154.65307 
L 618.626683 -154.026299 
L 618.867688 -153.403734 
L 619.108692 -152.785352 
L 619.349697 -152.171129 
L 619.590702 -151.561043 
L 619.831706 -150.955069 
L 620.072711 -150.353186 
L 620.313716 -149.755369 
L 620.55472 -149.161596 
L 620.795725 -148.571844 
L 621.036729 -147.98609 
L 621.277734 -147.404312 
L 621.518739 -146.826487 
L 621.759743 -146.252593 
L 622.000748 -145.682607 
L 622.241753 -145.116508 
L 622.482757 -144.554272 
L 622.723762 -143.995879 
L 622.964767 -143.441306 
L 623.205771 -142.890532 
L 623.446776 -142.343534 
L 623.687781 -141.800292 
L 623.928785 -141.260783 
L 624.16979 -140.724986 
L 624.410794 -140.19288 
L 624.651799 -139.664444 
L 624.892804 -139.139656 
L 625.133808 -138.618496 
L 625.374813 -138.100942 
L 625.615818 -137.586974 
L 625.856822 -137.076572 
L 626.097827 -136.569714 
L 626.338832 -136.066379 
L 626.579836 -135.566549 
L 626.820841 -135.070201 
L 627.061845 -134.577316 
L 627.30285 -134.087874 
L 627.543855 -133.601855 
L 627.784859 -133.119238 
L 628.025864 -132.640004 
L 628.266869 -132.164133 
L 628.507873 -131.691606 
L 628.507873 -74.515455 
L 628.507873 -74.515455 
L 628.266869 -74.515455 
L 628.025864 -74.515455 
L 627.784859 -74.515455 
L 627.543855 -74.515455 
L 627.30285 -74.515455 
L 627.061845 -74.515455 
L 626.820841 -74.515455 
L 626.579836 -74.515455 
L 626.338832 -74.515455 
L 626.097827 -74.515455 
L 625.856822 -74.515455 
L 625.615818 -74.515455 
L 625.374813 -74.515455 
L 625.133808 -74.515455 
L 624.892804 -74.515455 
L 624.651799 -74.515455 
L 624.410794 -74.515455 
L 624.16979 -74.515455 
L 623.928785 -74.515455 
L 623.687781 -74.515455 
L 623.446776 -74.515455 
L 623.205771 -74.515455 
L 622.964767 -74.515455 
L 622.723762 -74.515455 
L 622.482757 -74.515455 
L 622.241753 -74.515455 
L 622.000748 -74.515455 
L 621.759743 -74.515455 
L 621.518739 -74.515455 
L 621.277734 -74.515455 
L 621.036729 -74.515455 
L 620.795725 -74.515455 
L 620.55472 -74.515455 
L 620.313716 -74.515455 
L 620.072711 -74.515455 
L 619.831706 -74.515455 
L 619.590702 -74.515455 
L 619.349697 -74.515455 
L 619.108692 -74.515455 
L 618.867688 -74.515455 
L 618.626683 -74.515455 
L 618.385678 -74.515455 
L 618.144674 -74.515455 
L 617.903669 -74.515455 
L 617.662664 -74.515455 
L 617.42166 -74.515455 
L 617.180655 -74.515455 
L 616.939651 -74.515455 
L 616.698646 -74.515455 
L 616.457641 -74.515455 
L 616.216637 -74.515455 
L 615.975632 -74.515455 
L 615.734627 -74.515455 
L 615.493623 -74.515455 
L 615.252618 -74.515455 
L 615.011613 -74.515455 
L 614.770609 -74.515455 
L 614.529604 -74.515455 
L 614.2886 -74.515455 
L 614.047595 -74.515455 
L 613.80659 -74.515455 
L 613.565586 -74.515455 
L 613.324581 -74.515455 
L 613.083576 -74.515455 
L 612.842572 -74.515455 
L 612.601567 -74.515455 
L 612.360562 -74.515455 
L 612.119558 -74.515455 
L 611.878553 -74.515455 
L 611.637548 -74.515455 
L 611.396544 -74.515455 
L 611.155539 -74.515455 
L 610.914535 -74.515455 
L 610.67353 -74.515455 
L 610.432525 -74.515455 
L 610.191521 -74.515455 
L 609.950516 -74.515455 
L 609.709511 -74.515455 
L 609.468507 -74.515455 
L 609.227502 -74.515455 
L 608.986497 -74.515455 
L 608.745493 -74.515455 
L 608.504488 -74.515455 
L 608.263483 -74.515455 
L 608.022479 -74.515455 
L 607.781474 -74.515455 
L 607.54047 -74.515455 
L 607.299465 -74.515455 
L 607.05846 -74.515455 
L 606.817456 -74.515455 
L 606.576451 -74.515455 
L 606.335446 -74.515455 
L 606.094442 -74.515455 
L 605.853437 -74.515455 
L 605.612432 -74.515455 
L 605.371428 -74.515455 
L 605.130423 -74.515455 
L 604.889419 -74.515455 
L 604.648414 -74.515455 
z
" style="stroke: #808080; stroke-opacity: 0.5"/>
    </defs>
    <g clip-path="url(#pa842013b08)">
     <use xlink:href="#m73ee8c8574" x="0" y="286.415625" style="fill: #808080; fill-opacity: 0.5; stroke: #808080; stroke-opacity: 0.5"/>
    </g>
   </g>
   <g id="line2d_3">
    <path d="M 592.598182 34.79108 
L 595.731242 50.307804 
L 598.864302 64.644401 
L 601.997363 77.876636 
L 604.889419 89.172978 
L 607.781474 99.643185 
L 610.67353 109.338229 
L 613.565586 118.306538 
L 616.457641 126.594087 
L 619.349697 134.244496 
L 622.241753 141.299117 
L 625.133808 147.797129 
L 628.025864 153.775621 
L 630.91792 159.269677 
L 633.809975 164.312462 
L 636.702031 168.935296 
L 639.594087 173.167738 
L 642.486143 177.037656 
L 645.619203 180.851383 
L 648.752263 184.301776 
L 651.885324 187.418149 
L 655.018384 190.227897 
L 658.151444 192.756584 
L 661.525509 195.19276 
L 664.899574 197.35822 
L 668.514644 199.406929 
L 672.129713 201.20309 
L 675.985788 202.870442 
L 680.082867 204.392897 
L 684.42095 205.759698 
L 689.000038 206.965363 
L 694.061136 208.056224 
L 699.363238 208.970586 
L 705.388354 209.777199 
L 712.136484 210.447195 
L 719.848632 210.983045 
L 729.006809 211.391194 
L 740.816036 211.680586 
L 757.445356 211.845285 
L 790.221987 211.89912 
L 833.361818 211.90017 
L 833.361818 211.90017 
" clip-path="url(#pa842013b08)" style="fill: none; stroke: #000000; stroke-linecap: round"/>
   </g>
   <g id="patch_9">
    <path d="M 580.56 220.755625 
L 580.56 25.935625 
" style="fill: none; stroke: #cccccc; stroke-width: 1.25; stroke-linejoin: miter; stroke-linecap: square"/>
   </g>
   <g id="patch_10">
    <path d="M 580.56 220.755625 
L 845.4 220.755625 
" style="fill: none; stroke: #cccccc; stroke-width: 1.25; stroke-linejoin: miter; stroke-linecap: square"/>
   </g>
   <g id="text_21">
    <!-- (c) -->
    <g style="fill: #262626" transform="translate(580.56 15.935625) scale(0.12 -0.12)">
     <defs>
      <path id="ArialMT-63" d="M 2588 1216 
L 3141 1144 
Q 3050 572 2676 248 
Q 2303 -75 1759 -75 
Q 1078 -75 664 370 
Q 250 816 250 1647 
Q 250 2184 428 2587 
Q 606 2991 970 3192 
Q 1334 3394 1763 3394 
Q 2303 3394 2647 3120 
Q 2991 2847 3088 2344 
L 2541 2259 
Q 2463 2594 2264 2762 
Q 2066 2931 1784 2931 
Q 1359 2931 1093 2626 
Q 828 2322 828 1663 
Q 828 994 1084 691 
Q 1341 388 1753 388 
Q 2084 388 2306 591 
Q 2528 794 2588 1216 
z
" transform="scale(0.015625)"/>
     </defs>
     <use xlink:href="#ArialMT-28"/>
     <use xlink:href="#ArialMT-63" x="33.300781"/>
     <use xlink:href="#ArialMT-29" x="83.300781"/>
    </g>
   </g>
  </g>
  <g id="axes_4">
   <g id="patch_11">
    <path d="M 858.36 220.755625 
L 1123.2 220.755625 
L 1123.2 25.935625 
L 858.36 25.935625 
z
" style="fill: #ffffff"/>
   </g>
   <g id="matplotlib.axis_7">
    <g id="xtick_19">
     <g id="text_22">
      <!-- 0.0 -->
      <g style="fill: #262626" transform="translate(863.448182 237.413437) scale(0.1 -0.1)">
       <use xlink:href="#ArialMT-30"/>
       <use xlink:href="#ArialMT-2e" x="55.615234"/>
       <use xlink:href="#ArialMT-30" x="83.398438"/>
      </g>
     </g>
    </g>
    <g id="xtick_20">
     <g id="text_23">
      <!-- 0.2 -->
      <g style="fill: #262626" transform="translate(911.600909 237.413437) scale(0.1 -0.1)">
       <use xlink:href="#ArialMT-30"/>
       <use xlink:href="#ArialMT-2e" x="55.615234"/>
       <use xlink:href="#ArialMT-32" x="83.398438"/>
      </g>
     </g>
    </g>
    <g id="xtick_21">
     <g id="text_24">
      <!-- 0.4 -->
      <g style="fill: #262626" transform="translate(959.753636 237.413437) scale(0.1 -0.1)">
       <use xlink:href="#ArialMT-30"/>
       <use xlink:href="#ArialMT-2e" x="55.615234"/>
       <use xlink:href="#ArialMT-34" x="83.398438"/>
      </g>
     </g>
    </g>
    <g id="xtick_22">
     <g id="text_25">
      <!-- 0.6 -->
      <g style="fill: #262626" transform="translate(1007.906364 237.413437) scale(0.1 -0.1)">
       <use xlink:href="#ArialMT-30"/>
       <use xlink:href="#ArialMT-2e" x="55.615234"/>
       <use xlink:href="#ArialMT-36" x="83.398438"/>
      </g>
     </g>
    </g>
    <g id="xtick_23">
     <g id="text_26">
      <!-- 0.8 -->
      <g style="fill: #262626" transform="translate(1056.059091 237.413437) scale(0.1 -0.1)">
       <use xlink:href="#ArialMT-30"/>
       <use xlink:href="#ArialMT-2e" x="55.615234"/>
       <use xlink:href="#ArialMT-38" x="83.398438"/>
      </g>
     </g>
    </g>
    <g id="xtick_24">
     <g id="text_27">
      <!-- 1.0 -->
      <g style="fill: #262626" transform="translate(1104.211818 237.413437) scale(0.1 -0.1)">
       <use xlink:href="#ArialMT-31"/>
       <use xlink:href="#ArialMT-2e" x="55.615234"/>
       <use xlink:href="#ArialMT-30" x="83.398438"/>
      </g>
     </g>
    </g>
   </g>
   <g id="matplotlib.axis_8">
    <g id="ytick_28"/>
    <g id="ytick_29"/>
    <g id="ytick_30"/>
    <g id="ytick_31"/>
    <g id="ytick_32"/>
    <g id="ytick_33"/>
    <g id="ytick_34"/>
   </g>
   <g id="line2d_4">
    <path d="M 870.398182 34.79108 
L 871.121196 88.081188 
L 871.84421 125.995633 
L 872.567224 152.295244 
L 873.290238 170.090212 
L 874.013251 181.842515 
L 874.736265 189.425418 
L 875.459279 194.213068 
L 876.182293 197.179449 
L 876.905307 198.992723 
L 877.628321 200.097093 
L 878.351335 200.779032 
L 879.315354 201.330463 
L 880.761381 201.827479 
L 888.714535 204.148914 
L 897.149697 207.108552 
L 902.451799 208.823813 
L 906.548878 209.930306 
L 910.404952 210.752014 
L 914.261026 211.346842 
L 918.117101 211.719261 
L 922.21418 211.890088 
L 926.552263 211.849606 
L 931.372356 211.58222 
L 936.915463 211.046938 
L 943.422588 210.191333 
L 951.616746 208.882971 
L 960.051908 207.322784 
L 965.83602 206.045882 
L 970.656112 204.763757 
L 976.199219 203.044584 
L 982.46534 201.121579 
L 985.5984 200.398861 
L 988.249451 200.017571 
L 990.659498 199.893746 
L 993.069544 199.994974 
L 995.47959 200.311415 
L 998.371646 200.93221 
L 1001.986716 201.963254 
L 1014.036948 205.608762 
L 1019.098045 206.791609 
L 1025.123161 207.962625 
L 1032.594305 209.188833 
L 1039.58344 210.122249 
L 1045.367551 210.682854 
L 1050.669653 210.97852 
L 1055.730751 211.034695 
L 1060.550844 210.87032 
L 1065.611941 210.476553 
L 1071.396052 209.793621 
L 1081.036238 208.376292 
L 1088.025373 207.453528 
L 1093.08647 207.011097 
L 1097.665558 206.843837 
L 1102.003642 206.690692 
L 1102.96766 206.418987 
L 1103.690674 205.986456 
L 1104.172684 205.510926 
L 1104.654693 204.810618 
L 1105.136702 203.794983 
L 1105.618711 202.342611 
L 1106.100721 200.292871 
L 1106.58273 197.436122 
L 1107.064739 193.50256 
L 1107.546749 188.149914 
L 1108.028758 180.950382 
L 1108.510767 171.377424 
L 1109.233781 151.139674 
L 1109.956795 121.424327 
L 1110.679809 78.900704 
L 1111.161818 41.501521 
L 1111.161818 41.501521 
" clip-path="url(#p93a62a5151)" style="fill: none; stroke: #000000; stroke-linecap: round"/>
   </g>
   <g id="patch_12">
    <path d="M 858.36 220.755625 
L 858.36 25.935625 
" style="fill: none; stroke: #cccccc; stroke-width: 1.25; stroke-linejoin: miter; stroke-linecap: square"/>
   </g>
   <g id="patch_13">
    <path d="M 858.36 220.755625 
L 1123.2 220.755625 
" style="fill: none; stroke: #cccccc; stroke-width: 1.25; stroke-linejoin: miter; stroke-linecap: square"/>
   </g>
   <g id="text_28">
    <!-- (d) -->
    <g style="fill: #262626" transform="translate(858.36 15.935625) scale(0.12 -0.12)">
     <defs>
      <path id="ArialMT-64" d="M 2575 0 
L 2575 419 
Q 2259 -75 1647 -75 
Q 1250 -75 917 144 
Q 584 363 401 755 
Q 219 1147 219 1656 
Q 219 2153 384 2558 
Q 550 2963 881 3178 
Q 1213 3394 1622 3394 
Q 1922 3394 2156 3267 
Q 2391 3141 2538 2938 
L 2538 4581 
L 3097 4581 
L 3097 0 
L 2575 0 
z
M 797 1656 
Q 797 1019 1065 703 
Q 1334 388 1700 388 
Q 2069 388 2326 689 
Q 2584 991 2584 1609 
Q 2584 2291 2321 2609 
Q 2059 2928 1675 2928 
Q 1300 2928 1048 2622 
Q 797 2316 797 1656 
z
" transform="scale(0.015625)"/>
     </defs>
     <use xlink:href="#ArialMT-28"/>
     <use xlink:href="#ArialMT-64" x="33.300781"/>
     <use xlink:href="#ArialMT-29" x="88.916016"/>
    </g>
   </g>
  </g>
  <g id="text_29">
   <!-- Individual threshold: $\phi$ -->
   <g style="fill: #262626" transform="translate(481.44 275.855625) scale(0.16 -0.16)">
    <defs>
     <path id="ArialMT-49" d="M 597 0 
L 597 4581 
L 1203 4581 
L 1203 0 
L 597 0 
z
" transform="scale(0.015625)"/>
     <path id="ArialMT-6e" d="M 422 0 
L 422 3319 
L 928 3319 
L 928 2847 
Q 1294 3394 1984 3394 
Q 2284 3394 2536 3286 
Q 2788 3178 2913 3003 
Q 3038 2828 3088 2588 
Q 3119 2431 3119 2041 
L 3119 0 
L 2556 0 
L 2556 2019 
Q 2556 2363 2490 2533 
Q 2425 2703 2258 2804 
Q 2091 2906 1866 2906 
Q 1506 2906 1245 2678 
Q 984 2450 984 1813 
L 984 0 
L 422 0 
z
" transform="scale(0.015625)"/>
     <path id="ArialMT-69" d="M 425 3934 
L 425 4581 
L 988 4581 
L 988 3934 
L 425 3934 
z
M 425 0 
L 425 3319 
L 988 3319 
L 988 0 
L 425 0 
z
" transform="scale(0.015625)"/>
     <path id="ArialMT-76" d="M 1344 0 
L 81 3319 
L 675 3319 
L 1388 1331 
Q 1503 1009 1600 663 
Q 1675 925 1809 1294 
L 2547 3319 
L 3125 3319 
L 1869 0 
L 1344 0 
z
" transform="scale(0.015625)"/>
     <path id="ArialMT-75" d="M 2597 0 
L 2597 488 
Q 2209 -75 1544 -75 
Q 1250 -75 995 37 
Q 741 150 617 320 
Q 494 491 444 738 
Q 409 903 409 1263 
L 409 3319 
L 972 3319 
L 972 1478 
Q 972 1038 1006 884 
Q 1059 663 1231 536 
Q 1403 409 1656 409 
Q 1909 409 2131 539 
Q 2353 669 2445 892 
Q 2538 1116 2538 1541 
L 2538 3319 
L 3100 3319 
L 3100 0 
L 2597 0 
z
" transform="scale(0.015625)"/>
     <path id="ArialMT-6c" d="M 409 0 
L 409 4581 
L 972 4581 
L 972 0 
L 409 0 
z
" transform="scale(0.015625)"/>
     <path id="ArialMT-20" transform="scale(0.015625)"/>
     <path id="ArialMT-74" d="M 1650 503 
L 1731 6 
Q 1494 -44 1306 -44 
Q 1000 -44 831 53 
Q 663 150 594 308 
Q 525 466 525 972 
L 525 2881 
L 113 2881 
L 113 3319 
L 525 3319 
L 525 4141 
L 1084 4478 
L 1084 3319 
L 1650 3319 
L 1650 2881 
L 1084 2881 
L 1084 941 
Q 1084 700 1114 631 
Q 1144 563 1211 522 
Q 1278 481 1403 481 
Q 1497 481 1650 503 
z
" transform="scale(0.015625)"/>
     <path id="ArialMT-68" d="M 422 0 
L 422 4581 
L 984 4581 
L 984 2938 
Q 1378 3394 1978 3394 
Q 2347 3394 2619 3248 
Q 2891 3103 3008 2847 
Q 3125 2591 3125 2103 
L 3125 0 
L 2563 0 
L 2563 2103 
Q 2563 2525 2380 2717 
Q 2197 2909 1863 2909 
Q 1613 2909 1392 2779 
Q 1172 2650 1078 2428 
Q 984 2206 984 1816 
L 984 0 
L 422 0 
z
" transform="scale(0.015625)"/>
     <path id="ArialMT-72" d="M 416 0 
L 416 3319 
L 922 3319 
L 922 2816 
Q 1116 3169 1280 3281 
Q 1444 3394 1641 3394 
Q 1925 3394 2219 3213 
L 2025 2691 
Q 1819 2813 1613 2813 
Q 1428 2813 1281 2702 
Q 1134 2591 1072 2394 
Q 978 2094 978 1738 
L 978 0 
L 416 0 
z
" transform="scale(0.015625)"/>
     <path id="ArialMT-65" d="M 2694 1069 
L 3275 997 
Q 3138 488 2766 206 
Q 2394 -75 1816 -75 
Q 1088 -75 661 373 
Q 234 822 234 1631 
Q 234 2469 665 2931 
Q 1097 3394 1784 3394 
Q 2450 3394 2872 2941 
Q 3294 2488 3294 1666 
Q 3294 1616 3291 1516 
L 816 1516 
Q 847 969 1125 678 
Q 1403 388 1819 388 
Q 2128 388 2347 550 
Q 2566 713 2694 1069 
z
M 847 1978 
L 2700 1978 
Q 2663 2397 2488 2606 
Q 2219 2931 1791 2931 
Q 1403 2931 1139 2672 
Q 875 2413 847 1978 
z
" transform="scale(0.015625)"/>
     <path id="ArialMT-73" d="M 197 991 
L 753 1078 
Q 800 744 1014 566 
Q 1228 388 1613 388 
Q 2000 388 2187 545 
Q 2375 703 2375 916 
Q 2375 1106 2209 1216 
Q 2094 1291 1634 1406 
Q 1016 1563 777 1677 
Q 538 1791 414 1992 
Q 291 2194 291 2438 
Q 291 2659 392 2848 
Q 494 3038 669 3163 
Q 800 3259 1026 3326 
Q 1253 3394 1513 3394 
Q 1903 3394 2198 3281 
Q 2494 3169 2634 2976 
Q 2775 2784 2828 2463 
L 2278 2388 
Q 2241 2644 2061 2787 
Q 1881 2931 1553 2931 
Q 1166 2931 1000 2803 
Q 834 2675 834 2503 
Q 834 2394 903 2306 
Q 972 2216 1119 2156 
Q 1203 2125 1616 2013 
Q 2213 1853 2448 1751 
Q 2684 1650 2818 1456 
Q 2953 1263 2953 975 
Q 2953 694 2789 445 
Q 2625 197 2315 61 
Q 2006 -75 1616 -75 
Q 969 -75 630 194 
Q 291 463 197 991 
z
" transform="scale(0.015625)"/>
     <path id="ArialMT-6f" d="M 213 1659 
Q 213 2581 725 3025 
Q 1153 3394 1769 3394 
Q 2453 3394 2887 2945 
Q 3322 2497 3322 1706 
Q 3322 1066 3130 698 
Q 2938 331 2570 128 
Q 2203 -75 1769 -75 
Q 1072 -75 642 372 
Q 213 819 213 1659 
z
M 791 1659 
Q 791 1022 1069 705 
Q 1347 388 1769 388 
Q 2188 388 2466 706 
Q 2744 1025 2744 1678 
Q 2744 2294 2464 2611 
Q 2184 2928 1769 2928 
Q 1347 2928 1069 2612 
Q 791 2297 791 1659 
z
" transform="scale(0.015625)"/>
     <path id="ArialMT-3a" d="M 578 2678 
L 578 3319 
L 1219 3319 
L 1219 2678 
L 578 2678 
z
M 578 0 
L 578 641 
L 1219 641 
L 1219 0 
L 578 0 
z
" transform="scale(0.015625)"/>
     <path id="DejaVuSans-Oblique-3d5" d="M 2991 4863 
L 2738 3572 
Q 3363 3572 3684 3094 
Q 4016 2606 3850 1747 
Q 3681 888 3159 400 
Q 2653 -78 2028 -78 
L 1784 -1331 
L 1213 -1331 
L 1456 -78 
Q 834 -78 509 400 
Q 178 888 347 1747 
Q 513 2606 1034 3094 
Q 1544 3572 2166 3572 
L 2419 4863 
L 2991 4863 
z
M 2128 434 
Q 2481 434 2784 756 
Q 3116 1116 3244 1747 
Q 3369 2372 3169 2738 
Q 2991 3059 2638 3059 
L 2128 434 
z
M 1556 434 
L 2066 3059 
Q 1716 3059 1413 2738 
Q 1072 2372 953 1747 
Q 834 1116 1028 756 
Q 1203 434 1556 434 
z
" transform="scale(0.015625)"/>
    </defs>
    <use xlink:href="#ArialMT-49" transform="translate(0 0.015625)"/>
    <use xlink:href="#ArialMT-6e" transform="translate(27.783203 0.015625)"/>
    <use xlink:href="#ArialMT-64" transform="translate(83.398438 0.015625)"/>
    <use xlink:href="#ArialMT-69" transform="translate(139.013672 0.015625)"/>
    <use xlink:href="#ArialMT-76" transform="translate(161.230469 0.015625)"/>
    <use xlink:href="#ArialMT-69" transform="translate(211.230469 0.015625)"/>
    <use xlink:href="#ArialMT-64" transform="translate(233.447266 0.015625)"/>
    <use xlink:href="#ArialMT-75" transform="translate(289.0625 0.015625)"/>
    <use xlink:href="#ArialMT-61" transform="translate(344.677734 0.015625)"/>
    <use xlink:href="#ArialMT-6c" transform="translate(400.292969 0.015625)"/>
    <use xlink:href="#ArialMT-20" transform="translate(422.509766 0.015625)"/>
    <use xlink:href="#ArialMT-74" transform="translate(450.292969 0.015625)"/>
    <use xlink:href="#ArialMT-68" transform="translate(478.076172 0.015625)"/>
    <use xlink:href="#ArialMT-72" transform="translate(533.691406 0.015625)"/>
    <use xlink:href="#ArialMT-65" transform="translate(566.992188 0.015625)"/>
    <use xlink:href="#ArialMT-73" transform="translate(622.607422 0.015625)"/>
    <use xlink:href="#ArialMT-68" transform="translate(672.607422 0.015625)"/>
    <use xlink:href="#ArialMT-6f" transform="translate(728.222656 0.015625)"/>
    <use xlink:href="#ArialMT-6c" transform="translate(783.837891 0.015625)"/>
    <use xlink:href="#ArialMT-64" transform="translate(806.054688 0.015625)"/>
    <use xlink:href="#ArialMT-3a" transform="translate(861.669922 0.015625)"/>
    <use xlink:href="#ArialMT-20" transform="translate(889.453125 0.015625)"/>
    <use xlink:href="#DejaVuSans-Oblique-3d5" transform="translate(917.236328 0.015625)"/>
   </g>
  </g>
  <g id="text_30">
   <!-- Density: f(x) -->
   <g style="fill: #262626" transform="translate(18.8475 180.765625) rotate(-90) scale(0.16 -0.16)">
    <defs>
     <path id="ArialMT-44" d="M 494 0 
L 494 4581 
L 2072 4581 
Q 2606 4581 2888 4516 
Q 3281 4425 3559 4188 
Q 3922 3881 4101 3404 
Q 4281 2928 4281 2316 
Q 4281 1794 4159 1391 
Q 4038 988 3847 723 
Q 3656 459 3429 307 
Q 3203 156 2883 78 
Q 2563 0 2147 0 
L 494 0 
z
M 1100 541 
L 2078 541 
Q 2531 541 2789 625 
Q 3047 709 3200 863 
Q 3416 1078 3536 1442 
Q 3656 1806 3656 2325 
Q 3656 3044 3420 3430 
Q 3184 3816 2847 3947 
Q 2603 4041 2063 4041 
L 1100 4041 
L 1100 541 
z
" transform="scale(0.015625)"/>
     <path id="ArialMT-79" d="M 397 -1278 
L 334 -750 
Q 519 -800 656 -800 
Q 844 -800 956 -737 
Q 1069 -675 1141 -563 
Q 1194 -478 1313 -144 
Q 1328 -97 1363 -6 
L 103 3319 
L 709 3319 
L 1400 1397 
Q 1534 1031 1641 628 
Q 1738 1016 1872 1384 
L 2581 3319 
L 3144 3319 
L 1881 -56 
Q 1678 -603 1566 -809 
Q 1416 -1088 1222 -1217 
Q 1028 -1347 759 -1347 
Q 597 -1347 397 -1278 
z
" transform="scale(0.015625)"/>
     <path id="ArialMT-66" d="M 556 0 
L 556 2881 
L 59 2881 
L 59 3319 
L 556 3319 
L 556 3672 
Q 556 4006 616 4169 
Q 697 4388 901 4523 
Q 1106 4659 1475 4659 
Q 1713 4659 2000 4603 
L 1916 4113 
Q 1741 4144 1584 4144 
Q 1328 4144 1222 4034 
Q 1116 3925 1116 3625 
L 1116 3319 
L 1763 3319 
L 1763 2881 
L 1116 2881 
L 1116 0 
L 556 0 
z
" transform="scale(0.015625)"/>
     <path id="ArialMT-78" d="M 47 0 
L 1259 1725 
L 138 3319 
L 841 3319 
L 1350 2541 
Q 1494 2319 1581 2169 
Q 1719 2375 1834 2534 
L 2394 3319 
L 3066 3319 
L 1919 1756 
L 3153 0 
L 2463 0 
L 1781 1031 
L 1600 1309 
L 728 0 
L 47 0 
z
" transform="scale(0.015625)"/>
    </defs>
    <use xlink:href="#ArialMT-44"/>
    <use xlink:href="#ArialMT-65" x="72.216797"/>
    <use xlink:href="#ArialMT-6e" x="127.832031"/>
    <use xlink:href="#ArialMT-73" x="183.447266"/>
    <use xlink:href="#ArialMT-69" x="233.447266"/>
    <use xlink:href="#ArialMT-74" x="255.664062"/>
    <use xlink:href="#ArialMT-79" x="283.447266"/>
    <use xlink:href="#ArialMT-3a" x="333.447266"/>
    <use xlink:href="#ArialMT-20" x="361.230469"/>
    <use xlink:href="#ArialMT-66" x="389.013672"/>
    <use xlink:href="#ArialMT-28" x="416.796875"/>
    <use xlink:href="#ArialMT-78" x="450.097656"/>
    <use xlink:href="#ArialMT-29" x="500.097656"/>
   </g>
  </g>
 </g>
 <defs>
  <clipPath id="p42a657ad33">
   <rect x="24.96" y="25.935625" width="264.84" height="194.82"/>
  </clipPath>
  <clipPath id="pac8d7b4ba2">
   <rect x="302.76" y="25.935625" width="264.84" height="194.82"/>
  </clipPath>
  <clipPath id="pa842013b08">
   <rect x="580.56" y="25.935625" width="264.84" height="194.82"/>
  </clipPath>
  <clipPath id="p93a62a5151">
   <rect x="858.36" y="25.935625" width="264.84" height="194.82"/>
  </clipPath>
 </defs>
</svg>
